<svg xmlns="http://www.w3.org/2000/svg" width="207" height="35" viewBox="0 0 207 35" fill="none">
<path d="M26.0937 24.275C25.2387 27.74 19.3437 29.45 13.4037 29.45C7.50873 29.45 1.61373 27.74 0.758731 24.275C0.30873 22.52 0.0837305 18.74 0.0837305 15.005C0.0837305 11.225 0.30873 7.445 0.758731 5.645C1.61373 2.225 7.50873 0.47 13.4037 0.47C19.3437 0.47 25.2387 2.225 26.0937 5.645C26.5437 7.445 26.7687 11.225 26.7687 15.005C26.7687 18.74 26.5437 22.52 26.0937 24.275ZM26.4987 34.94H20.1537C20.4237 34.895 20.6937 34.895 20.9637 34.85C20.1987 32.825 18.2637 32.015 16.0137 32.015C14.1687 32.015 12.2787 32.555 10.8837 33.14L9.12873 31.655C11.1987 30.53 14.0787 29.945 16.9137 29.945C21.5937 29.945 25.4637 31.385 26.4987 34.94ZM5.79873 23.375C6.24873 26.21 9.84873 27.605 13.4037 27.605C17.0037 27.605 20.5587 26.21 21.0537 23.375C21.3687 21.575 21.5037 18.29 21.5037 14.96C21.5037 11.675 21.3687 8.39 21.0537 6.59C20.5587 3.755 17.0037 2.36 13.4037 2.36C9.84873 2.36 6.29373 3.755 5.79873 6.59C5.48373 8.39 5.30373 11.675 5.30373 14.96C5.30373 18.29 5.48373 21.575 5.79873 23.375ZM49.8291 17.255V9.965H55.0941V28.595V28.91L50.0541 28.235C48.0291 29 45.5541 29.315 43.0791 29.315C37.8141 29.315 32.5041 27.65 31.6941 24.41C31.2891 22.88 31.0641 21.08 31.0641 19.235V9.65L36.3291 10.325V19.235C36.3741 20.72 36.4641 22.205 36.6891 23.465C37.1391 26.075 40.1091 27.425 43.0791 27.425C45.5541 27.425 48.0741 26.975 49.8291 25.985V17.255ZM83.3917 18.83V29L78.1267 28.325C76.1917 29 73.8067 29.315 71.4217 29.315C66.1117 29.315 60.8467 27.65 59.9917 24.41C59.5867 22.88 59.4067 21.08 59.4067 19.235C59.4067 17.435 59.5867 15.59 59.9917 14.015C60.8017 10.73 66.0667 9.065 71.3767 9.065C76.6867 9.065 81.9967 10.73 82.8517 14.105C83.2117 15.5 83.3917 17.165 83.3917 18.83ZM78.1267 25.985V19.145C78.1267 17.705 78.0367 16.265 77.8117 15.05C77.3167 12.35 74.3917 11 71.3767 11C68.4517 11 65.4367 12.35 64.9867 15.005C64.7617 16.265 64.6717 17.75 64.6717 19.235C64.6717 20.72 64.7617 22.205 64.9867 23.465C65.4367 26.075 68.4517 27.425 71.4217 27.425C73.8967 27.425 76.3717 26.975 78.1267 25.985ZM92.7088 21.305V29H87.4438V9.92L91.8988 10.505C94.0138 9.605 96.7138 9.2 99.4588 9.2C104.724 9.2 110.034 10.865 110.844 14.105C111.249 15.635 111.429 17.48 111.429 19.28V29H106.164V19.28C106.164 17.795 106.074 16.31 105.849 15.095C105.399 12.485 102.429 11.09 99.4588 11.09C96.9388 11.09 94.4638 11.585 92.7088 12.53V21.305ZM117.58 0.964999L122.845 1.64V9.92H128.47V11.945H122.845V28.325V29H117.58V11.945H114.25V9.92H117.58V0.964999ZM155.11 18.83V29L149.845 28.325C147.91 29 145.525 29.315 143.14 29.315C137.83 29.315 132.565 27.65 131.71 24.41C131.305 22.88 131.125 21.08 131.125 19.235C131.125 17.435 131.305 15.59 131.71 14.015C132.52 10.73 137.785 9.065 143.095 9.065C148.405 9.065 153.715 10.73 154.57 14.105C154.93 15.5 155.11 17.165 155.11 18.83ZM149.845 25.985V19.145C149.845 17.705 149.755 16.265 149.53 15.05C149.035 12.35 146.11 11 143.095 11C140.17 11 137.155 12.35 136.705 15.005C136.48 16.265 136.39 17.75 136.39 19.235C136.39 20.72 136.48 22.205 136.705 23.465C137.155 26.075 140.17 27.425 143.14 27.425C145.615 27.425 148.09 26.975 149.845 25.985ZM173.428 28.055C169.873 30.26 162.583 30.035 159.163 27.56L160.918 26.39C161.008 26.435 161.368 26.57 161.503 26.66C163.753 27.785 168.253 28.505 170.008 26.21C170.638 25.4 171.088 24.05 170.323 23.15C168.658 21.305 162.763 21.17 160.333 18.2C158.038 15.41 159.388 11.63 162.673 10.325C166.138 8.93 171.673 9.2 174.913 10.955L173.338 12.305C173.068 12.17 172.483 11.99 172.123 11.855C169.828 11.09 166.543 10.91 165.013 12.62C164.113 13.61 163.753 15.14 164.878 16.085C166.948 17.885 173.023 17.975 175.003 21.215C176.398 23.465 175.678 26.705 173.428 28.055ZM185.173 29H179.908V9.605L185.173 10.325V29ZM185.578 2.72C185.803 3.53 185.803 4.61 185.578 5.375C185.173 7.22 179.953 7.175 179.503 5.465C179.323 4.655 179.323 3.53 179.503 2.675C179.953 0.919999 185.128 0.919999 185.578 2.72ZM203.706 28.055C200.151 30.26 192.861 30.035 189.441 27.56L191.196 26.39C191.286 26.435 191.646 26.57 191.781 26.66C194.031 27.785 198.531 28.505 200.286 26.21C200.916 25.4 201.366 24.05 200.601 23.15C198.936 21.305 193.041 21.17 190.611 18.2C188.316 15.41 189.666 11.63 192.951 10.325C196.416 8.93 201.951 9.2 205.191 10.955L203.616 12.305C203.346 12.17 202.761 11.99 202.401 11.855C200.106 11.09 196.821 10.91 195.291 12.62C194.391 13.61 194.031 15.14 195.156 16.085C197.226 17.885 203.301 17.975 205.281 21.215C206.676 23.465 205.956 26.705 203.706 28.055Z" fill="#7E35DE"/>
</svg>
