<svg xmlns="http://www.w3.org/2000/svg" width="100" height="100" viewBox="0 0 100 100" fill="none">
<rect width="100" height="100" fill="#FF6A47"/>
<path d="M20.7651 43.9336L15.5574 56.9376H14.2568L9.04908 43.9336H7L13.0675 58.6821H16.7467L22.8142 43.9336H20.7651Z" fill="#52002D"/>
<path d="M29.333 43.6165C24.8851 43.6165 21.6452 46.8144 21.6452 51.3079C21.6452 55.8014 24.8572 58.9994 29.333 58.9994C33.0393 58.9994 35.7029 57.0963 36.4439 54.2684H34.3023C33.5064 56.2504 31.4197 57.2816 29.3601 57.2816C26.1751 57.2816 23.9515 54.8767 23.759 51.7577H36.8824C36.9103 51.2819 36.9373 50.7004 36.8824 50.1449C36.5808 46.4444 33.4778 43.6165 29.3323 43.6165H29.333ZM23.8146 50.1449C24.3089 47.3699 26.4226 45.3342 29.3609 45.3342C31.7492 45.3342 34.4128 47.052 34.7972 50.1449H23.8146Z" fill="#52002D"/>
<path d="M44.2686 43.6165C42.4016 43.6165 40.7542 44.5152 39.9854 45.7839V43.9337H37.9536V58.6822H39.9854V49.5373C39.9854 46.8412 41.7426 45.3082 43.8564 45.3082C45.9702 45.3082 47.5077 46.8673 47.5077 49.3519V58.6822H49.5395V49.1673C49.5395 45.5725 47.343 43.6165 44.2679 43.6165H44.2686Z" fill="#52002D"/>
<path d="M52.8711 41H50.8393V55.3524C50.8393 57.8102 52.4589 58.6829 54.5185 58.6829H56.8249V56.9383H54.848C53.6128 56.9383 52.8711 56.3836 52.8711 55.1938V45.6782H56.9347V43.9336H52.8711V41Z" fill="#52002D"/>
<path d="M58.0653 45.6781H60.729V58.6821H62.7607V43.9336H58.0653V45.6781Z" fill="#52002D"/>
<path d="M71.5739 43.6693C67.071 43.6693 63.8861 46.8411 63.8861 51.3346C63.8861 55.8281 67.0432 59 71.5739 59C76.1046 59 79.2888 55.8281 79.2888 51.3346C79.2888 46.8411 76.0489 43.6693 71.5739 43.6693ZM71.5739 57.2019C68.252 57.2019 65.9727 54.5854 65.9727 51.3339C65.9727 48.0824 68.2513 45.4659 71.5739 45.4659C74.8965 45.4659 77.175 48.0563 77.175 51.3339C77.175 54.6115 74.8686 57.2019 71.5739 57.2019Z" fill="#52002D"/>
<path d="M86.7291 43.6165C84.8621 43.6165 83.2147 44.5152 82.4459 45.7839V43.9337H80.4141V58.6822H82.4459V49.5373C82.4459 46.8412 84.2031 45.3082 86.3169 45.3082C88.4307 45.3082 89.9682 46.8673 89.9682 49.3519V58.6822H92V49.1673C92 45.5725 89.8035 43.6165 86.7283 43.6165H86.7291Z" fill="#52002D"/>
</svg>
