<svg xmlns="http://www.w3.org/2000/svg" width="194" height="28" viewBox="0 0 194 28" fill="none">
<g clip-path="url(#clip0_93_2)">
<path d="M18.37 8.73995C18.37 10.3999 18 11.8499 17.26 13.0699C16.52 14.2999 15.43 15.2299 14 15.8899C12.56 16.5399 10.78 16.8699 8.67 16.8699H6.03V25.5399H0V0.569946H8.67C10.79 0.569946 12.56 0.899946 14 1.54995C15.44 2.19995 16.53 3.13995 17.26 4.34995C18 5.55995 18.37 7.02995 18.37 8.73995ZM12.56 8.73995C12.56 7.68995 12.22 6.89995 11.53 6.34995C10.84 5.79995 9.89 5.52995 8.68 5.52995H6.04V11.9099H8.68C9.89 11.9099 10.84 11.6399 11.53 11.0899C12.22 10.5399 12.56 9.75995 12.56 8.73995Z" fill="#151E2C"/>
<path d="M46.05 13.16C46.05 20.43 40.16 26.32 32.89 26.32C25.62 26.32 19.73 20.43 19.73 13.16C19.73 5.89 25.62 0 32.89 0C40.16 0 46.05 5.89 46.05 13.16ZM40.08 13.16C40.08 9.19 36.86 5.97 32.89 5.97C28.92 5.97 25.7 9.19 25.7 13.16C25.7 17.13 28.92 20.35 32.89 20.35C36.86 20.35 40.08 17.13 40.08 13.16Z" fill="#151E2C"/>
<path d="M66.63 18.44C66.63 19.7 66.37 20.82 65.86 21.81C65.35 22.8 64.66 23.62 63.79 24.29C62.92 24.96 61.94 25.46 60.83 25.81C59.72 26.16 58.59 26.33 57.42 26.33C55.8 26.33 54.3 26.04 52.91 25.46C51.52 24.88 50.31 24.09 49.29 23.09C48.31 22.13 47.54 21.09 46.97 19.96L51.11 16.79C51.61 17.69 52.17 18.47 52.8 19.13C53.43 19.8 54.12 20.31 54.87 20.66C55.62 21.02 56.41 21.19 57.24 21.19C58.12 21.19 58.85 20.97 59.42 20.53C59.99 20.09 60.28 19.49 60.28 18.73C60.28 18.09 60.11 17.57 59.78 17.18C59.45 16.79 58.91 16.41 58.18 16.06C57.44 15.7 56.47 15.3 55.26 14.85C54.67 14.64 53.98 14.34 53.21 13.96C52.44 13.58 51.71 13.09 51.02 12.48C50.33 11.87 49.76 11.14 49.31 10.27C48.86 9.40001 48.63 8.35001 48.63 7.11001C48.63 5.64001 49.02 4.36001 49.79 3.29001C50.56 2.22001 51.61 1.41001 52.93 0.85001C54.25 0.29001 55.72 0.0100098 57.33 0.0100098C58.94 0.0100098 60.44 0.28001 61.66 0.83001C62.88 1.38001 63.9 2.07001 64.71 2.90001C65.29 3.50001 65.78 4.11001 66.17 4.73001L61.94 7.96001C61.59 7.38001 61.19 6.88001 60.73 6.45001C60.27 6.01001 59.76 5.66001 59.2 5.42001C58.64 5.17001 58.04 5.04001 57.4 5.04001C56.54 5.04001 55.89 5.22001 55.44 5.59001C54.99 5.96001 54.76 6.42001 54.76 6.96001C54.76 7.50001 54.98 8.03001 55.42 8.46001C55.86 8.89001 56.49 9.28001 57.31 9.64001C58.13 10 59.12 10.38 60.29 10.78C61.17 11.11 61.99 11.5 62.75 11.94C63.51 12.38 64.18 12.91 64.77 13.53C65.35 14.15 65.81 14.86 66.14 15.67C66.47 16.48 66.64 17.41 66.64 18.45L66.63 18.44Z" fill="#151E2C"/>
<path d="M69.33 25.5399V0.569946H75.46V25.5399H69.33Z" fill="#151E2C"/>
<path d="M97.23 0.569946V5.95995H90.35V25.5399H84.32V5.95995H77.47V0.569946H97.23Z" fill="#151E2C"/>
<path d="M99.21 25.5399V0.569946H105.34V25.5399H99.21Z" fill="#151E2C"/>
<path d="M144.76 0.569946L132.49 27.1099L125.9 14.2499L119.29 27.1099L107.06 0.569946H113.82L119.29 15.2099L125.89 2.08995L132.49 15.2099L137.96 0.569946H144.75H144.76Z" fill="#151E2C"/>
<path d="M146.48 25.5399V0.569946H152.61V25.5399H146.48Z" fill="#151E2C"/>
<path d="M174.59 18.44C174.59 19.7 174.33 20.82 173.82 21.81C173.31 22.8 172.62 23.62 171.75 24.29C170.88 24.96 169.9 25.46 168.79 25.81C167.68 26.16 166.55 26.33 165.38 26.33C163.76 26.33 162.26 26.04 160.87 25.46C159.48 24.88 158.27 24.09 157.25 23.09C156.27 22.13 155.5 21.09 154.93 19.96L159.07 16.79C159.57 17.69 160.13 18.47 160.76 19.13C161.39 19.8 162.08 20.31 162.83 20.66C163.58 21.02 164.37 21.19 165.2 21.19C166.08 21.19 166.81 20.97 167.38 20.53C167.95 20.09 168.24 19.49 168.24 18.73C168.24 18.09 168.07 17.57 167.74 17.18C167.41 16.79 166.87 16.41 166.14 16.06C165.4 15.7 164.43 15.3 163.22 14.85C162.63 14.64 161.94 14.34 161.17 13.96C160.4 13.58 159.67 13.09 158.98 12.48C158.29 11.87 157.72 11.14 157.27 10.27C156.82 9.40001 156.59 8.35001 156.59 7.11001C156.59 5.64001 156.98 4.36001 157.75 3.29001C158.52 2.22001 159.57 1.41001 160.89 0.85001C162.21 0.29001 163.68 0.0100098 165.29 0.0100098C166.9 0.0100098 168.4 0.28001 169.62 0.83001C170.84 1.38001 171.86 2.07001 172.67 2.90001C173.25 3.50001 173.74 4.11001 174.13 4.73001L169.9 7.96001C169.55 7.38001 169.15 6.88001 168.69 6.45001C168.23 6.01001 167.72 5.66001 167.16 5.42001C166.6 5.17001 166 5.04001 165.36 5.04001C164.5 5.04001 163.85 5.22001 163.4 5.59001C162.95 5.96001 162.72 6.42001 162.72 6.96001C162.72 7.50001 162.94 8.03001 163.38 8.46001C163.82 8.89001 164.45 9.28001 165.27 9.64001C166.09 10 167.08 10.38 168.25 10.78C169.13 11.11 169.95 11.5 170.71 11.94C171.47 12.38 172.14 12.91 172.73 13.53C173.31 14.15 173.77 14.86 174.1 15.67C174.43 16.48 174.6 17.41 174.6 18.45L174.59 18.44Z" fill="#151E2C"/>
<path d="M193.88 5.52995H183.07V20.5799H193.88V25.5399H177.3V0.569946H193.88V5.52995ZM189.44 16.9699C188.54 15.3199 187.18 13.9599 185.53 13.0599C187.18 12.1599 188.54 10.7999 189.44 9.14995C190.34 10.7999 191.7 12.1599 193.35 13.0599C191.7 13.9599 190.34 15.3199 189.44 16.9699Z" fill="#151E2C"/>
<path d="M41.05 13.1C40.96 13.07 40.91 13 40.87 12.92C40.77 12.72 40.75 12.51 40.73 12.29C40.71 12.1 40.64 11.93 40.48 11.81C40.33 11.7 40.15 11.67 39.97 11.68C39.95 11.68 39.92 11.68 39.89 11.68C39.99 11.63 40.08 11.59 40.16 11.54C40.42 11.38 40.52 11.12 40.45 10.83C40.41 10.66 40.37 10.49 40.34 10.32C40.32 10.16 40.33 10.01 40.46 9.88997V9.87997C40.39 9.85997 40.32 9.84997 40.26 9.81997C40.12 9.74997 40.04 9.61997 39.96 9.49997C39.89 9.38997 39.83 9.26997 39.76 9.15997C39.6 8.91997 39.38 8.82997 39.08 8.90997C38.98 8.93997 38.89 8.97997 38.8 9.00997C38.86 8.94997 38.92 8.88997 38.98 8.80997C39.08 8.68997 39.15 8.54997 39.15 8.38997C39.15 8.21997 39.07 8.07997 38.97 7.93997C38.88 7.80997 38.78 7.67997 38.71 7.53997C38.64 7.40997 38.59 7.26997 38.67 7.11997C38.67 7.11997 38.67 7.09997 38.67 7.08997C38.49 7.18997 38.33 7.11997 38.18 7.02997C38.07 6.95997 37.96 6.87997 37.85 6.78997C37.73 6.68997 37.6 6.61997 37.44 6.60997C37.26 6.59997 37.11 6.67997 36.98 6.78997C36.92 6.83997 36.87 6.89997 36.81 6.95997C36.85 6.83997 36.88 6.73997 36.91 6.63997C36.95 6.50997 36.94 6.37997 36.88 6.25997C36.82 6.10997 36.7 5.99997 36.56 5.91997C36.4 5.82997 36.24 5.73997 36.11 5.59997C36.03 5.50997 35.96 5.41997 35.98 5.28997C35.98 5.27997 35.98 5.25997 35.97 5.23997C35.85 5.38997 35.69 5.40997 35.53 5.37997C35.36 5.34997 35.2 5.30997 35.03 5.26997C34.74 5.20997 34.53 5.26997 34.36 5.50997C34.29 5.60997 34.25 5.71997 34.19 5.82997C34.19 5.80997 34.19 5.78997 34.19 5.76997C34.19 5.59997 34.18 5.43997 34.09 5.27997C33.97 5.04997 33.75 4.97997 33.52 4.95997C33.37 4.93997 33.21 4.91997 33.07 4.85997C32.95 4.80997 32.84 4.75997 32.8 4.61997C32.8 4.60997 32.78 4.58997 32.77 4.58997C32.77 4.58997 32.74 4.59997 32.74 4.61997C32.72 4.70997 32.66 4.75997 32.58 4.79997C32.42 4.88997 32.24 4.91997 32.05 4.93997C31.88 4.95997 31.71 4.98997 31.57 5.09997C31.38 5.26997 31.34 5.48997 31.34 5.72997C31.34 5.74997 31.34 5.77997 31.34 5.81997C31.33 5.79997 31.32 5.78997 31.32 5.78997C31.27 5.68997 31.23 5.57997 31.17 5.48997C31.04 5.26997 30.75 5.16997 30.52 5.23997C30.36 5.27997 30.2 5.31997 30.04 5.34997C29.86 5.38997 29.69 5.36997 29.55 5.20997C29.55 5.23997 29.55 5.25997 29.55 5.26997C29.55 5.35997 29.52 5.42997 29.47 5.49997C29.38 5.61997 29.27 5.69997 29.15 5.76997C29.04 5.83997 28.93 5.89997 28.83 5.96997C28.7 6.05997 28.62 6.19997 28.6 6.35997C28.58 6.50997 28.61 6.65997 28.67 6.79997C28.69 6.83997 28.7 6.87997 28.72 6.91997C28.65 6.86997 28.59 6.79997 28.52 6.74997C28.28 6.55997 28.04 6.52997 27.78 6.69997C27.64 6.79997 27.5 6.90997 27.36 6.99997C27.24 7.07997 27.11 7.12997 26.96 7.09997C26.93 7.09997 26.89 7.07997 26.86 7.06997C26.86 7.07997 26.86 7.08997 26.86 7.09997C26.93 7.22997 26.9 7.34997 26.85 7.47997C26.78 7.65997 26.66 7.79997 26.55 7.94997C26.46 8.06997 26.4 8.19997 26.39 8.34997C26.39 8.52997 26.46 8.68997 26.57 8.81997C26.62 8.87997 26.67 8.92997 26.73 8.98997C26.71 8.98997 26.69 8.98997 26.67 8.97997C26.58 8.94997 26.49 8.89997 26.39 8.87997C26.11 8.83997 25.93 8.90997 25.76 9.16997C25.67 9.30997 25.59 9.45997 25.5 9.59997C25.43 9.70997 25.34 9.79997 25.2 9.83997C25.16 9.84997 25.11 9.84997 25.06 9.85997C25.08 9.87997 25.1 9.89997 25.12 9.91997C25.21 10.03 25.22 10.16 25.2 10.29C25.17 10.48 25.12 10.66 25.08 10.84C25.05 11 25.05 11.16 25.14 11.3C25.22 11.44 25.34 11.53 25.48 11.59C25.53 11.61 25.58 11.63 25.63 11.66C25.52 11.67 25.42 11.68 25.31 11.69C24.99 11.75 24.85 11.98 24.8 12.23C24.77 12.41 24.75 12.59 24.71 12.76C24.68 12.9 24.62 13.03 24.47 13.09C24.45 13.09 24.44 13.11 24.41 13.13C24.53 13.15 24.61 13.22 24.65 13.31C24.7 13.44 24.74 13.57 24.77 13.71C24.8 13.84 24.8 13.97 24.83 14.1C24.87 14.26 24.96 14.39 25.11 14.47C25.26 14.56 25.43 14.57 25.6 14.56C25.62 14.56 25.64 14.56 25.66 14.56C25.56 14.61 25.45 14.65 25.36 14.72C25.09 14.9 25.04 15.13 25.08 15.39C25.11 15.57 25.17 15.75 25.2 15.94C25.23 16.1 25.2 16.26 25.08 16.38C25.08 16.38 25.08 16.39 25.07 16.4C25.09 16.4 25.1 16.4 25.11 16.4C25.17 16.41 25.24 16.4 25.28 16.44C25.35 16.48 25.42 16.54 25.47 16.6C25.57 16.74 25.65 16.88 25.74 17.03C25.94 17.37 26.23 17.46 26.59 17.31C26.64 17.29 26.69 17.27 26.74 17.25C26.7 17.29 26.66 17.34 26.62 17.38C26.49 17.53 26.39 17.69 26.4 17.89C26.4 18.03 26.46 18.15 26.54 18.26C26.62 18.37 26.71 18.49 26.78 18.6C26.86 18.72 26.92 18.85 26.91 19C26.91 19.05 26.88 19.11 26.87 19.17C26.89 19.17 26.91 19.15 26.94 19.15C27.01 19.15 27.08 19.12 27.14 19.14C27.27 19.17 27.39 19.24 27.5 19.32C27.6 19.4 27.7 19.48 27.8 19.55C27.94 19.65 28.11 19.68 28.28 19.64C28.45 19.6 28.57 19.49 28.69 19.36C28.7 19.35 28.72 19.33 28.73 19.32C28.73 19.34 28.73 19.35 28.73 19.35C28.7 19.45 28.66 19.54 28.63 19.64C28.6 19.77 28.61 19.89 28.66 20.02C28.72 20.17 28.83 20.27 28.96 20.34C29.12 20.43 29.29 20.52 29.42 20.66C29.51 20.75 29.58 20.85 29.57 20.99C29.57 21 29.57 21.01 29.58 21.04C29.64 20.96 29.7 20.91 29.79 20.9C29.96 20.88 30.12 20.9 30.29 20.94C30.41 20.97 30.54 21.01 30.66 21.02C30.74 21.02 30.82 21.02 30.89 20.99C31.06 20.94 31.17 20.81 31.25 20.66C31.29 20.59 31.31 20.52 31.35 20.45C31.36 20.56 31.37 20.67 31.38 20.77C31.44 21.11 31.68 21.26 31.95 21.29C32.12 21.31 32.28 21.33 32.44 21.38C32.57 21.43 32.7 21.48 32.75 21.63C32.75 21.64 32.77 21.66 32.78 21.66C32.79 21.66 32.8 21.64 32.81 21.63C32.83 21.53 32.91 21.48 32.99 21.43C33.17 21.33 33.37 21.31 33.57 21.29C33.75 21.27 33.92 21.21 34.04 21.06C34.18 20.89 34.2 20.7 34.2 20.49C34.2 20.47 34.2 20.45 34.2 20.43C34.26 20.58 34.33 20.72 34.44 20.84C34.57 20.98 34.73 21.04 34.92 21.01C35.08 20.98 35.24 20.93 35.39 20.9C35.59 20.86 35.81 20.83 35.97 21.03C35.97 21.01 35.97 20.99 35.98 20.98C35.98 20.93 35.98 20.88 36 20.84C36.05 20.76 36.11 20.67 36.19 20.61C36.31 20.51 36.45 20.43 36.59 20.35C36.91 20.16 37.02 19.87 36.89 19.52C36.87 19.46 36.84 19.39 36.82 19.33C36.86 19.37 36.9 19.4 36.93 19.43C37.04 19.53 37.15 19.62 37.3 19.65C37.46 19.68 37.62 19.65 37.75 19.55C37.88 19.46 38.01 19.35 38.14 19.26C38.25 19.18 38.38 19.12 38.52 19.13C38.57 19.13 38.62 19.16 38.67 19.17C38.66 19.11 38.64 19.06 38.63 19.01C38.63 18.86 38.69 18.74 38.76 18.62C38.85 18.48 38.96 18.35 39.05 18.21C39.16 18.04 39.18 17.85 39.1 17.66C39.05 17.54 38.97 17.43 38.87 17.34C38.85 17.32 38.82 17.3 38.8 17.28C38.89 17.31 38.98 17.34 39.07 17.37C39.2 17.41 39.34 17.42 39.47 17.37C39.65 17.3 39.75 17.16 39.85 17C39.93 16.86 40.02 16.73 40.11 16.6C40.18 16.51 40.27 16.44 40.39 16.43C40.42 16.43 40.45 16.43 40.48 16.43C40.44 16.36 40.39 16.3 40.37 16.24C40.31 16.04 40.37 15.84 40.41 15.64C40.43 15.55 40.47 15.45 40.48 15.36C40.51 15.08 40.39 14.87 40.15 14.73C40.07 14.68 39.98 14.65 39.88 14.6C39.91 14.6 39.93 14.6 39.95 14.6C40.06 14.6 40.17 14.6 40.27 14.57C40.59 14.5 40.7 14.27 40.74 14.03C40.77 13.85 40.79 13.68 40.83 13.5C40.85 13.4 40.9 13.3 40.99 13.23C41.03 13.2 41.08 13.18 41.12 13.16C41.1 13.15 41.08 13.13 41.06 13.12L41.05 13.1ZM39.7 13.89C39.69 14.06 39.65 14.23 39.62 14.39C39.59 14.55 39.56 14.71 39.53 14.87C39.49 15.03 39.44 15.19 39.39 15.34C39.33 15.53 39.27 15.72 39.19 15.89C39.06 16.18 38.93 16.47 38.77 16.74C38.49 17.24 38.14 17.7 37.74 18.12C37.4 18.47 37.03 18.79 36.63 19.07C36.27 19.31 35.89 19.53 35.49 19.69C35.23 19.79 34.97 19.89 34.7 19.98C34.44 20.06 34.17 20.13 33.89 20.17C33.37 20.26 32.84 20.29 32.31 20.25C32.14 20.24 31.97 20.22 31.8 20.2C31.62 20.17 31.44 20.14 31.25 20.1C31.08 20.06 30.92 20.02 30.75 19.97C30.6 19.93 30.45 19.88 30.31 19.82C30.08 19.72 29.85 19.63 29.63 19.51C29.38 19.38 29.14 19.24 28.91 19.09C28.29 18.68 27.76 18.18 27.3 17.6C26.96 17.17 26.68 16.72 26.45 16.22C26.35 16 26.25 15.78 26.17 15.55C26.09 15.31 26.02 15.06 25.95 14.81C25.87 14.5 25.82 14.19 25.79 13.88C25.75 13.43 25.73 12.99 25.78 12.54C25.8 12.34 25.82 12.14 25.85 11.94C25.88 11.77 25.91 11.61 25.95 11.44C25.99 11.28 26.03 11.12 26.08 10.96C26.15 10.74 26.23 10.52 26.32 10.3C26.48 9.89997 26.68 9.51997 26.92 9.15997C27.17 8.77997 27.45 8.42997 27.76 8.09997C27.77 8.08997 27.79 8.07997 27.81 8.06997C27.81 8.04997 27.82 8.02997 27.84 8.01997C28.31 7.54997 28.84 7.13997 29.43 6.82997C29.7 6.68997 29.98 6.54997 30.27 6.43997C30.48 6.34997 30.71 6.28997 30.94 6.21997C31.08 6.17997 31.22 6.13997 31.36 6.10997C31.57 6.06997 31.78 6.03997 31.99 6.01997C32.25 5.99997 32.51 5.97997 32.77 5.96997C33 5.96997 33.24 5.98997 33.47 6.00997C33.64 6.02997 33.81 6.04997 33.97 6.07997C34.12 6.10997 34.27 6.13997 34.42 6.17997C34.6 6.22997 34.78 6.27997 34.96 6.33997C35.14 6.39997 35.32 6.46997 35.49 6.54997C35.84 6.69997 36.17 6.87997 36.48 7.08997C36.91 7.36997 37.3 7.68997 37.66 8.05997C37.94 8.34997 38.2 8.65997 38.43 8.98997C38.67 9.32997 38.88 9.69997 39.05 10.08C39.15 10.31 39.24 10.54 39.33 10.77C39.39 10.95 39.44 11.13 39.49 11.31C39.53 11.46 39.57 11.61 39.6 11.76C39.63 11.92 39.65 12.08 39.67 12.24C39.69 12.5 39.72 12.77 39.72 13.03C39.72 13.31 39.71 13.59 39.69 13.87L39.7 13.89Z" fill="white"/>
<path d="M27.9 8.38996C27.89 8.48996 27.87 8.57996 27.84 8.67996C27.76 8.90996 27.64 9.12996 27.51 9.33996C27.37 9.56996 27.22 9.79996 27.17 10.08C27.15 10.21 27.17 10.32 27.2 10.44C27.27 10.65 27.42 10.81 27.61 10.93C27.64 10.95 27.67 10.97 27.69 10.99C27.61 10.99 27.53 10.97 27.45 10.96C27.27 10.93 27.1 10.96 26.94 11.05C26.71 11.17 26.6 11.38 26.53 11.62C26.47 11.81 26.43 12.01 26.38 12.21C26.33 12.42 26.27 12.62 26.17 12.81C26.1 12.94 26.02 13.07 25.86 13.12C25.84 13.12 25.83 13.14 25.8 13.16C25.97 13.19 26.05 13.3 26.13 13.42C26.22 13.57 26.28 13.73 26.33 13.9C26.38 14.08 26.43 14.25 26.47 14.43C26.5 14.59 26.55 14.75 26.62 14.9C26.82 15.28 27.14 15.41 27.56 15.33C27.61 15.32 27.67 15.31 27.71 15.3C27.62 15.37 27.52 15.44 27.43 15.52C27.14 15.79 27.1 16.1 27.23 16.43C27.29 16.59 27.38 16.73 27.47 16.88C27.65 17.18 27.84 17.48 27.9 17.83C27.91 17.91 27.9 18 27.9 18.08C27.9 18.12 27.88 18.16 27.86 18.21C27.91 18.19 27.94 18.18 27.97 18.17C28.12 18.12 28.26 18.17 28.4 18.21C28.61 18.28 28.8 18.39 28.99 18.51C29.21 18.65 29.42 18.81 29.68 18.88C29.83 18.92 29.98 18.93 30.13 18.88C30.31 18.82 30.45 18.7 30.56 18.54C30.6 18.49 30.63 18.44 30.67 18.38C30.67 18.39 30.67 18.4 30.67 18.41C30.66 18.54 30.63 18.68 30.64 18.81C30.64 19.03 30.74 19.21 30.9 19.35C31.06 19.48 31.24 19.55 31.44 19.6C31.6 19.64 31.76 19.68 31.92 19.72C32.11 19.77 32.29 19.83 32.46 19.93C32.59 20 32.71 20.09 32.75 20.25C32.75 20.26 32.77 20.27 32.78 20.28C32.78 20.28 32.8 20.26 32.81 20.25C32.84 20.13 32.93 20.05 33.02 19.99C33.26 19.82 33.54 19.75 33.82 19.68C34 19.63 34.19 19.59 34.37 19.53C34.56 19.46 34.71 19.35 34.81 19.17C34.93 18.97 34.94 18.75 34.9 18.52C34.9 18.46 34.88 18.4 34.87 18.37C34.95 18.47 35.04 18.6 35.14 18.7C35.29 18.85 35.48 18.93 35.7 18.91C35.92 18.89 36.11 18.8 36.29 18.68C36.58 18.49 36.88 18.29 37.22 18.19C37.32 18.16 37.43 18.13 37.54 18.17C37.58 18.19 37.63 18.2 37.67 18.21C37.65 18.13 37.63 18.06 37.62 17.99C37.62 17.81 37.67 17.64 37.75 17.48C37.88 17.23 38.02 17 38.15 16.76C38.25 16.59 38.33 16.4 38.36 16.2C38.39 15.98 38.32 15.78 38.17 15.62C38.06 15.51 37.94 15.41 37.83 15.32C37.87 15.32 37.93 15.35 38 15.36C38.16 15.39 38.31 15.39 38.47 15.34C38.7 15.26 38.85 15.08 38.95 14.86C39.04 14.66 39.07 14.45 39.12 14.24C39.17 14.02 39.23 13.8 39.33 13.59C39.39 13.46 39.46 13.34 39.58 13.26C39.62 13.23 39.67 13.22 39.73 13.19C39.71 13.18 39.69 13.16 39.67 13.15C39.57 13.12 39.51 13.05 39.45 12.97C39.26 12.69 39.18 12.37 39.11 12.04C39.06 11.84 39.03 11.63 38.93 11.44C38.78 11.14 38.54 10.98 38.2 10.98C38.1 10.98 38 11.01 37.9 11.02C37.88 11.02 37.86 11.02 37.84 11.02C37.98 10.92 38.12 10.82 38.22 10.68C38.34 10.52 38.39 10.34 38.37 10.14C38.34 9.92996 38.25 9.72996 38.14 9.54996C37.95 9.25996 37.77 8.95996 37.67 8.62996C37.63 8.49996 37.6 8.36996 37.65 8.23996C37.66 8.20996 37.67 8.16996 37.69 8.12996C37.67 8.12996 37.66 8.12996 37.65 8.12996C37.58 8.14996 37.52 8.17996 37.45 8.17996C37.25 8.17996 37.07 8.10996 36.89 8.01996C36.68 7.89996 36.47 7.77996 36.27 7.64996C36.11 7.54996 35.94 7.45996 35.76 7.43996C35.47 7.39996 35.23 7.50996 35.05 7.72996C34.98 7.80996 34.92 7.89996 34.85 8.00996C34.91 7.83996 34.92 7.68996 34.92 7.52996C34.92 7.36996 34.86 7.21996 34.76 7.09996C34.61 6.90996 34.4 6.81996 34.18 6.75996C33.98 6.69996 33.79 6.65996 33.59 6.60996C33.41 6.55996 33.23 6.49996 33.07 6.39996C32.95 6.32996 32.84 6.24996 32.8 6.09996C32.8 6.08996 32.78 6.07996 32.77 6.07996C32.77 6.07996 32.75 6.09996 32.74 6.10996C32.72 6.20996 32.65 6.27996 32.58 6.33996C32.46 6.42996 32.33 6.49996 32.19 6.54996C32.01 6.60996 31.84 6.65996 31.66 6.70996C31.49 6.74996 31.32 6.77996 31.16 6.84996C30.83 6.98996 30.61 7.26996 30.64 7.66996C30.64 7.78996 30.67 7.89996 30.68 7.99996C30.62 7.91996 30.56 7.81996 30.48 7.73996C30.3 7.52996 30.06 7.42996 29.78 7.46996C29.59 7.49996 29.43 7.57996 29.27 7.67996C28.98 7.86996 28.7 8.05996 28.36 8.16996C28.19 8.21996 28.02 8.24996 27.85 8.13996C27.85 8.15996 27.85 8.17996 27.86 8.19996C27.9 8.27996 27.92 8.35996 27.91 8.44996L27.9 8.38996ZM28.21 10.62C28.55 9.96996 29.01 9.40996 29.59 8.94996C29.88 8.71996 30.2 8.50996 30.54 8.34996C30.76 8.24996 31 8.15996 31.23 8.07996C31.44 8.00996 31.66 7.95996 31.87 7.90996C32.21 7.84996 32.56 7.81996 32.9 7.83996C33.15 7.84996 33.4 7.86996 33.64 7.90996C33.86 7.94996 34.07 8.00996 34.28 8.06996C34.59 8.15996 34.88 8.28996 35.16 8.43996C35.73 8.74996 36.22 9.14996 36.64 9.63996C36.97 10.03 37.25 10.45 37.44 10.92C37.54 11.16 37.62 11.4 37.7 11.65C37.76 11.84 37.81 12.03 37.84 12.23C37.88 12.52 37.9 12.82 37.92 13.07C37.9 13.35 37.9 13.59 37.87 13.81C37.84 14.04 37.79 14.26 37.74 14.48C37.67 14.79 37.55 15.09 37.42 15.39C37.24 15.78 37.01 16.15 36.74 16.48C36.43 16.86 36.08 17.19 35.68 17.47C35.39 17.67 35.09 17.85 34.76 17.98C34.56 18.06 34.36 18.14 34.16 18.2C33.98 18.26 33.78 18.29 33.6 18.33C33.28 18.39 32.96 18.42 32.64 18.41C32.39 18.4 32.14 18.37 31.89 18.33C31.7 18.3 31.51 18.26 31.32 18.21C30.96 18.11 30.61 17.96 30.28 17.78C29.73 17.47 29.25 17.08 28.85 16.61C28.5 16.2 28.22 15.76 28.02 15.26C27.93 15.03 27.84 14.79 27.77 14.56C27.69 14.29 27.64 14.01 27.61 13.73C27.57 13.4 27.58 13.06 27.59 12.73C27.59 12.54 27.64 12.35 27.67 12.17C27.69 12.05 27.71 11.94 27.74 11.82C27.77 11.69 27.81 11.55 27.86 11.42C27.97 11.15 28.07 10.88 28.2 10.62H28.21Z" fill="#1E3E74"/>
<path d="M32.75 18.29L33.7 17H31.81L32.75 18.29Z" fill="#1E3E74"/>
<path d="M32.74 16.97L33.36 15.79H32.12L32.74 16.97Z" fill="#1E3E74"/>
<path d="M32.12 15.79L31.47 14.55H32.19L31.82 13.7H31.81L31.45 14.52L30.71 13.1L29.97 14.52L28.93 13.11L27.87 14.56H29.96L29.31 15.8H30.89L30.35 17.01H31.83L30.94 15.8H32.15L32.12 15.79ZM30 14.55H31.44L30.9 15.76L30.01 14.55H30Z" fill="#1E3E74"/>
<path d="M36.55 13.0999L35.51 14.5099L34.76 13.0799L34.01 14.5199L33.65 13.6999L33.62 13.6899V13.7099L33.26 14.5499H32.74L33.4 13.6899H32.76L33.26 12.8899L33.54 13.5099L33.98 12.9299L33.65 13.6899H34.43L34 12.9099L34.02 12.8899H34L34.3 12.2199L34.75 13.0899L35.48 11.6899L36.53 13.1099L37.59 11.6599H35.5L36.07 10.5599H34.69L35.54 9.18994H33.63L34.64 10.5599H33.42L33.99 11.6599H33.3L33.6 12.1999H32.93L33.24 12.8899H32.17L32.67 13.6999H32.05L32.71 14.5599H32.16L32.71 15.7999L33.26 14.5599H33.98L33.33 15.7999H34.56L33.67 17.0099H35.12L34.57 15.7999H36.15L35.5 14.5599H37.58L36.52 13.1199L36.55 13.0999ZM34.69 10.5799L35.47 11.6399H34.03L34.69 10.5799ZM34.03 11.6499L34.31 12.1799H33.71L34.04 11.6499H34.03ZM33.66 12.2499L34 12.8699H33.27L33.66 12.2499ZM34.59 15.7799L34.03 14.5399H35.5L34.59 15.7799Z" fill="#1E3E74"/>
<path d="M33.66 9.18003L32.72 7.91003L31.79 9.18003H32.74H33.66Z" fill="#1E3E74"/>
<path d="M30.71 13.0899L31.16 12.2299L31.46 12.9099L31.91 13.4799L32.18 12.8899H31.47L31.81 12.2599L32.19 12.8699L32.49 12.1999H31.84L32.13 11.6599H31.45L32.02 10.5599H30.78L31.79 9.18994H29.91L30.76 10.5599H29.38L29.95 11.6599H27.86L28.92 13.0999L29.96 11.6799L30.7 13.0999L30.71 13.0899ZM31.78 12.1899H31.18L31.45 11.6599L31.78 12.1899ZM30.78 10.5699L31.45 11.6499H29.99L30.78 10.5699Z" fill="#1E3E74"/>
<path d="M32.02 10.5501H32.73H33.46L32.74 9.18005L32.02 10.5501Z" fill="#1E3E74"/>
<path d="M32.14 11.65H33.33L32.73 10.55L32.14 11.65Z" fill="#1E3E74"/>
<path d="M31.03 13.69H31.8L31.45 12.9L31.03 13.69Z" fill="#1E3E74"/>
<path d="M32.49 12.1901H32.95L32.72 11.6801L32.49 12.1901Z" fill="#1E3E74"/>
<path d="M32.18 12.88H32.2L32.19 12.86L32.18 12.88Z" fill="#1E3E74"/>
<path d="M33.42 13.69H33.64L33.55 13.51L33.42 13.69Z" fill="#1E3E74"/>
<path d="M31.82 13.69H32.08L31.91 13.47L31.82 13.69Z" fill="#1E3E74"/>
</g>
<defs>
<clipPath id="clip0_93_2">
<rect width="193.88" height="27.11" fill="white"/>
</clipPath>
</defs>
</svg>
