<svg xmlns="http://www.w3.org/2000/svg" width="240" height="240" viewBox="0 0 240 240" fill="none">
<rect width="240" height="240" fill="white"/>
<path d="M29.9791 118.249C30.1764 118.339 30.3365 118.494 30.4324 118.689C30.5223 118.88 30.567 119.089 30.5629 119.301C30.5578 119.534 30.5184 119.766 30.4462 119.988C30.3701 120.23 30.2639 120.461 30.1302 120.676C30.0153 120.86 29.8689 121.023 29.6976 121.157C29.5698 121.269 29.4074 121.335 29.2374 121.342C29.0859 121.329 28.9398 121.28 28.8116 121.198C28.6265 121.085 28.4498 120.958 28.2828 120.82C28.1011 120.666 27.9291 120.5 27.7677 120.325C27.6216 120.173 27.4968 120.002 27.3969 119.816H27.2869C27.2185 119.809 27.1494 119.809 27.0809 119.816H26.868C26.7788 119.809 26.6924 119.782 26.6151 119.736C26.5378 119.691 26.4717 119.629 26.4216 119.555C26.3093 119.411 26.1748 119.286 26.0233 119.184C25.9166 119.116 25.801 119.062 25.6799 119.026L25.3296 118.923C25.186 118.874 25.0514 118.802 24.9313 118.71C24.6882 118.543 24.4688 118.344 24.2788 118.118C24.0728 117.885 23.8805 117.656 23.7019 117.431L22.7129 116.929C22.4245 116.778 22.1498 116.627 21.8888 116.462C21.6133 116.292 21.3495 116.103 21.099 115.898C20.7927 115.65 20.5035 115.381 20.2336 115.094V114.833C20.2337 114.501 20.1945 114.171 20.1169 113.85C20.0367 113.533 19.9974 113.207 20.0001 112.88C19.9995 112.745 20.0301 112.611 20.0894 112.488C20.1394 112.394 20.2043 112.308 20.2817 112.234C20.3627 112.163 20.4528 112.103 20.5496 112.055C20.6509 111.997 20.7453 111.928 20.8311 111.849H21.2226C21.2638 111.802 21.2858 111.74 21.2844 111.677C21.2844 111.602 21.2844 111.533 21.2844 111.464C21.2806 111.398 21.2806 111.331 21.2844 111.265C21.2954 111.225 21.3183 111.188 21.3502 111.161C21.3821 111.134 21.4214 111.118 21.463 111.114C21.5439 111.049 21.6375 111.002 21.7377 110.976L22.0262 110.894C22.1279 110.864 22.2268 110.825 22.3215 110.777C22.4483 110.719 22.5626 110.638 22.658 110.536L22.9739 110.248L23.3036 109.918C23.4211 109.802 23.5554 109.704 23.7019 109.629L24.1483 109.423L24.5879 109.21C24.7397 109.128 24.8749 109.018 24.9862 108.886C25.0823 108.777 25.1718 108.663 25.254 108.543C25.3296 108.433 25.3983 108.323 25.4739 108.227C25.5505 108.126 25.6331 108.029 25.7211 107.938C25.8184 107.833 25.9321 107.745 26.0576 107.677L26.6208 107.347C26.7513 107.271 26.8405 107.209 26.9024 107.168C26.9484 107.132 26.992 107.093 27.0328 107.051L27.0947 106.955C27.122 106.902 27.1541 106.851 27.1908 106.804L27.4243 106.515C27.7164 106.16 28.0643 105.856 28.4545 105.614C28.7166 105.463 29.0107 105.376 29.3129 105.36C29.495 105.36 29.6743 105.405 29.8349 105.491C29.9845 105.579 30.1152 105.696 30.2195 105.834C30.3297 105.975 30.4114 106.136 30.4599 106.309C30.5075 106.474 30.5329 106.645 30.5354 106.817C30.5402 107.035 30.4881 107.251 30.3844 107.443C30.336 107.53 30.2679 107.605 30.1857 107.661C30.1034 107.717 30.0092 107.753 29.9105 107.766C29.7976 107.776 29.6903 107.819 29.6014 107.89C29.5418 107.94 29.4948 108.004 29.4641 108.075C29.4384 108.133 29.4177 108.193 29.4023 108.254C29.3979 108.28 29.3876 108.305 29.3721 108.326C29.3566 108.348 29.3364 108.365 29.3129 108.378C29.2099 108.44 29.1069 108.488 29.0108 108.536L28.7086 108.694C28.601 108.762 28.5058 108.848 28.427 108.948C28.3171 109.072 28.2072 109.203 28.0974 109.347L27.7746 109.732C27.712 109.818 27.6263 109.885 27.5273 109.924C27.5273 109.924 27.5273 109.924 27.4861 109.876L27.4174 109.766C27.4002 109.722 27.3771 109.681 27.3487 109.643C27.3487 109.608 27.3487 109.588 27.3007 109.588C27.2526 109.588 27.3007 109.622 27.2595 109.698C27.2183 109.773 27.2595 109.842 27.2595 109.918C27.2595 109.993 27.2595 110.069 27.2595 110.144V110.275L27.0534 110.33C26.7327 110.415 26.4318 110.562 26.1675 110.763C25.8977 110.965 25.6387 111.18 25.3914 111.409L24.636 112.097C24.3904 112.308 24.115 112.482 23.8187 112.612V112.825C23.7705 112.87 23.7175 112.909 23.6607 112.942L23.3379 113.176L23.0083 113.403C22.9052 113.471 22.8572 113.513 22.8572 113.526C22.8572 113.726 22.8572 113.85 22.8572 113.911C22.8572 113.973 22.8572 114.001 22.8572 114.001C22.8572 114.001 22.8572 114.001 22.8228 114.001C22.8169 113.996 22.8097 113.994 22.8022 113.994C22.7948 113.994 22.7876 113.996 22.7816 114.001C22.7816 114.001 22.7473 114.001 22.7335 114.09C22.7198 114.18 22.7335 114.262 22.6855 114.441L22.9671 114.64L23.544 115.052L24.1208 115.465C24.2122 115.537 24.3113 115.6 24.4162 115.651C24.4892 115.659 24.563 115.659 24.636 115.651H24.8969C25.0623 115.639 25.2274 115.677 25.3708 115.761C25.4477 115.807 25.5191 115.863 25.5837 115.926C25.6592 116.015 25.7554 116.111 25.8584 116.214C26.0155 116.334 26.1993 116.415 26.3941 116.448C26.4742 116.479 26.5485 116.523 26.6139 116.579C26.6872 116.647 26.7627 116.723 26.8405 116.805C26.9161 116.895 26.9917 116.984 27.0603 117.08C27.116 117.161 27.178 117.237 27.2457 117.307C27.4122 117.511 27.6238 117.674 27.8638 117.782C28.1005 117.885 28.3466 117.966 28.5987 118.022C28.8417 118.069 29.087 118.103 29.3336 118.125C29.5521 118.146 29.7683 118.188 29.9791 118.249Z" fill="#F05B5C"/>
<path d="M47.4915 116.304C47.4915 116.537 47.4915 116.771 47.4915 116.991C47.4758 117.222 47.4437 117.452 47.3953 117.678C47.3636 117.868 47.3153 118.054 47.2511 118.235C47.1891 118.413 47.1499 118.598 47.1343 118.785C47.1343 118.902 47.0931 119.033 47.0794 119.163C47.0657 119.294 46.9901 119.362 46.8665 119.362H46.7566C46.6851 119.362 46.6151 119.383 46.5553 119.422C46.4954 119.461 46.4484 119.517 46.42 119.582C46.3398 119.748 46.2821 119.924 46.2483 120.105C46.2058 120.312 46.1737 120.52 46.1522 120.73C46.1522 120.944 46.1042 121.109 46.0767 121.239C46.0471 121.352 46.0287 121.467 46.0218 121.583C46.0218 121.679 46.0218 121.768 46.0218 121.844C46.02 121.928 45.9988 122.01 45.96 122.085C45.911 122.182 45.8459 122.27 45.7676 122.346L45.3349 122.751C45.1879 122.884 45.0607 123.037 44.9572 123.205C44.8885 123.308 44.8332 123.419 44.7924 123.535C44.7649 123.631 44.7375 123.721 44.71 123.803C44.6776 123.884 44.6311 123.959 44.5726 124.023C44.487 124.102 44.3866 124.162 44.2773 124.202C44.0651 124.295 43.8587 124.4 43.6592 124.518C43.4674 124.637 43.2678 124.743 43.0617 124.834C42.8235 124.95 42.5939 125.084 42.3749 125.233C42.1551 125.377 41.9422 125.515 41.6881 125.645C41.4688 125.772 41.239 125.881 41.0013 125.969C40.7571 126.057 40.4989 126.102 40.239 126.099C40.0039 126.093 39.7716 126.046 39.5522 125.962C39.3068 125.865 39.0758 125.736 38.8654 125.577C38.7761 125.567 38.69 125.538 38.613 125.491C38.536 125.445 38.4698 125.383 38.419 125.309C38.3083 125.142 38.2248 124.959 38.1717 124.766C38.1336 124.642 38.0781 124.523 38.0069 124.415C37.9644 124.352 37.908 124.301 37.8421 124.264C37.7754 124.233 37.7066 124.208 37.636 124.188C37.5405 124.151 37.4521 124.098 37.3751 124.03C36.932 123.679 36.5432 123.264 36.2213 122.8C35.8779 122.291 35.5345 121.775 35.2598 121.26C35.1932 121.129 35.1447 120.991 35.1156 120.847C35.0812 120.696 35.0537 120.538 35.0262 120.38C34.9988 120.222 34.9644 120.064 34.937 119.919C34.9132 119.795 34.8616 119.677 34.7859 119.576C34.7153 119.458 34.6022 119.372 34.47 119.335C34.3869 119.326 34.307 119.297 34.2365 119.253C34.1567 119.174 34.108 119.069 34.0991 118.957C34.0572 118.663 34.0411 118.367 34.051 118.07C34.0489 117.787 34.0306 117.505 33.9961 117.225C33.9549 116.936 33.9137 116.633 33.8587 116.324C33.8038 116.015 33.7626 115.699 33.7283 115.376C33.693 115.058 33.6747 114.739 33.6733 114.42C33.672 114.08 33.6881 113.741 33.7214 113.403C33.7214 113.059 33.7901 112.715 33.8381 112.385C33.8862 112.055 33.9343 111.698 33.9824 111.375C34.0304 111.052 34.0579 110.687 34.0785 110.364C34.0991 110.041 34.0785 109.725 34.1128 109.402C34.1472 109.079 34.1128 108.715 34.1128 108.419C34.1128 108.123 34.154 107.766 34.1884 107.45C34.2247 107.135 34.289 106.825 34.3807 106.522C34.4715 106.202 34.5911 105.892 34.7379 105.594C34.8821 105.298 35.0262 105.009 35.1636 104.714C35.301 104.418 35.4315 104.123 35.5551 103.82C35.6805 103.502 35.7748 103.173 35.8367 102.837C35.8814 102.597 36.0017 102.378 36.1801 102.212C36.401 102.003 36.6453 101.821 36.9081 101.669C37.21 101.494 37.5245 101.343 37.849 101.215C38.1789 101.08 38.5159 100.963 38.8586 100.864C39.1625 100.769 39.4722 100.693 39.7857 100.637C40.0117 100.589 40.2415 100.561 40.4725 100.555C40.9168 100.553 41.3582 100.628 41.7774 100.775C42.2073 100.929 42.6232 101.12 43.0205 101.345C43.2119 101.452 43.4146 101.538 43.6249 101.6C43.8278 101.66 44.0381 101.693 44.2498 101.696C44.4074 101.708 44.5637 101.661 44.6894 101.565C44.7858 101.477 44.8629 101.369 44.916 101.249C44.9684 101.135 45.0142 101.018 45.0534 100.899C45.0846 100.799 45.1443 100.711 45.2251 100.644H45.1839C45.2092 100.618 45.2438 100.604 45.28 100.603H45.4998C45.5934 100.617 45.6854 100.64 45.7745 100.672L46.1042 100.796C46.2098 100.84 46.313 100.891 46.4132 100.947C46.4934 100.983 46.5675 101.032 46.633 101.091C46.6881 101.161 46.7342 101.237 46.7703 101.318L46.9695 101.744C47.0451 101.895 47.1 102.033 47.155 102.164C47.1895 102.243 47.2148 102.326 47.2305 102.411C47.2292 102.689 47.2638 102.966 47.3335 103.236C47.4041 103.505 47.4387 103.782 47.4365 104.061C47.4366 104.362 47.402 104.661 47.3335 104.954C47.2646 105.247 47.23 105.547 47.2305 105.848C47.2305 106.226 47.2305 106.59 47.2305 106.948C47.2305 107.305 47.2305 107.635 47.2305 108.041C47.2305 108.446 47.2305 108.728 47.2305 109.051C47.2089 109.383 47.17 109.714 47.1137 110.041C47.0893 110.152 47.071 110.265 47.0588 110.378C47.0386 110.501 47.0111 110.623 46.9764 110.742C46.9534 110.85 46.9115 110.952 46.8527 111.045C46.834 111.082 46.8055 111.113 46.7704 111.135C46.7353 111.156 46.6949 111.168 46.6536 111.169C46.5747 111.168 46.4971 111.15 46.427 111.114H46.3033H46.1865C46.1042 111.114 46.0492 111.114 46.0286 111.059C46.0201 111.015 46.0201 110.971 46.0286 110.928C46.0345 110.871 46.0345 110.813 46.0286 110.756C46.0181 110.717 46 110.681 45.9752 110.649C45.9505 110.617 45.9196 110.59 45.8844 110.571C45.821 110.521 45.7448 110.49 45.6646 110.481L45.3899 110.44C45.3046 110.422 45.2247 110.384 45.1564 110.33C45.1221 110.298 45.0956 110.258 45.0789 110.214C45.0622 110.17 45.0559 110.123 45.0602 110.076C45.0602 109.952 45.0602 109.883 45.1221 109.876C45.1512 109.876 45.1801 109.881 45.2072 109.891C45.2343 109.902 45.2591 109.918 45.28 109.938C45.3416 109.989 45.4083 110.032 45.4792 110.069C45.5115 110.087 45.5483 110.097 45.5856 110.097C45.623 110.097 45.6597 110.087 45.6921 110.069C45.5606 109.884 45.4457 109.689 45.3487 109.484C45.2525 109.278 45.1495 109.072 45.0534 108.859C44.9572 108.646 44.8542 108.44 44.758 108.226C44.6576 108.025 44.5405 107.831 44.4078 107.649C44.291 107.488 44.1963 107.313 44.1262 107.127C44.0506 106.927 43.982 106.721 43.9133 106.515C43.8446 106.309 43.7691 106.123 43.6867 105.937C43.6184 105.77 43.5181 105.619 43.3914 105.491C42.9594 105.082 42.4852 104.72 41.9766 104.411C41.4913 104.111 40.9332 103.949 40.3626 103.944C39.9918 103.941 39.6245 104.016 39.2844 104.164C38.9359 104.323 38.6064 104.522 38.3022 104.755C38.1717 104.851 38.0482 104.927 37.9314 105.003C37.8134 105.072 37.7009 105.15 37.5949 105.236C37.4877 105.327 37.3951 105.434 37.3201 105.552C37.2285 105.706 37.1678 105.877 37.1416 106.054C37.0932 106.266 37.0724 106.483 37.0798 106.7C37.0864 106.914 37.0417 107.126 36.9493 107.319C36.8985 107.414 36.8224 107.492 36.7295 107.546C36.682 107.574 36.6409 107.612 36.6089 107.657C36.5769 107.702 36.5548 107.753 36.5441 107.807C36.4685 108.083 36.4247 108.367 36.4136 108.653C36.4136 108.941 36.4136 109.244 36.4136 109.546V110.467C36.4035 110.766 36.3644 111.063 36.2968 111.354C36.2419 111.58 36.2029 111.81 36.1801 112.042C36.1801 112.275 36.1457 112.509 36.1457 112.729C36.1457 113.176 36.1457 113.609 36.1801 114.035C36.2144 114.461 36.1801 114.894 36.1801 115.327C36.1801 115.76 36.1801 116.365 36.2419 116.867C36.2822 117.376 36.3602 117.882 36.4754 118.38C36.5566 118.749 36.6716 119.11 36.8188 119.459C36.969 119.805 37.0818 120.167 37.1553 120.538C37.1988 120.756 37.268 120.968 37.3614 121.17C37.4551 121.385 37.5702 121.59 37.7047 121.782C37.8325 121.959 37.9852 122.116 38.158 122.25C38.3056 122.365 38.4861 122.43 38.6731 122.435C38.8016 122.436 38.9293 122.415 39.0509 122.373C39.1725 122.332 39.3001 122.311 39.4286 122.312C39.5692 122.312 39.7095 122.325 39.8475 122.353C39.9847 122.386 40.1254 122.402 40.2664 122.401C40.5343 122.398 40.8005 122.357 41.0563 122.277C41.3316 122.189 41.5719 122.015 41.7431 121.782C41.8571 121.623 42.0111 121.498 42.1894 121.418C42.3539 121.345 42.5239 121.285 42.6977 121.239C42.8676 121.192 43.033 121.13 43.1922 121.054C43.3684 120.959 43.5138 120.816 43.6111 120.641C43.712 120.452 43.7904 120.251 43.8446 120.043C43.9202 119.775 44.0026 119.5 44.085 119.204C44.1674 118.909 44.2567 118.648 44.346 118.407C44.3905 118.235 44.4835 118.08 44.6138 117.96C44.7202 117.836 44.7787 117.677 44.7787 117.513C44.7787 117.273 44.7787 116.984 44.7787 116.661V115.925C44.7787 115.692 44.7787 115.465 44.7787 115.238C44.7835 115.037 44.8041 114.837 44.8405 114.64C44.8655 114.493 44.9143 114.352 44.9847 114.221C45.0102 114.172 45.0489 114.131 45.0961 114.104C45.1434 114.076 45.1976 114.061 45.2525 114.063C45.3005 114.061 45.348 114.073 45.3901 114.096C45.4323 114.119 45.4677 114.152 45.4929 114.193C45.517 114.234 45.5512 114.267 45.5922 114.29C45.6332 114.313 45.6795 114.324 45.7264 114.324C45.8261 114.321 45.9212 114.282 45.9943 114.214C46.0715 114.139 46.175 114.097 46.2827 114.097C46.3601 114.102 46.4352 114.125 46.5021 114.164C46.5689 114.204 46.6255 114.258 46.6673 114.324C46.7875 114.484 46.8933 114.654 46.9833 114.833C47.075 114.999 47.1553 115.171 47.2236 115.348C47.2854 115.506 47.3266 115.596 47.3541 115.602C47.3816 115.609 47.5052 115.726 47.5189 115.898C47.5327 116.07 47.4915 116.194 47.4915 116.304Z" fill="black"/>
<path d="M82.5871 124.917C82.5876 125.072 82.5572 125.227 82.4979 125.37C82.4803 125.437 82.4406 125.496 82.3862 125.538C82.3318 125.58 82.2647 125.604 82.1956 125.604C82.1025 125.603 82.0094 125.587 81.9212 125.556C81.83 125.527 81.7349 125.514 81.6394 125.515C81.4885 125.515 81.413 125.549 81.413 125.618C81.413 125.687 81.413 125.769 81.413 125.859C81.3958 125.909 81.3689 125.956 81.3331 125.996C81.2978 126.036 81.2552 126.069 81.2067 126.092C80.973 126.181 80.7216 126.217 80.4722 126.195C80.2595 126.196 80.0473 126.173 79.84 126.127C79.6327 126.08 79.4211 126.057 79.2084 126.058C79.033 126.06 78.859 126.09 78.6929 126.147C78.6292 126.043 78.5449 125.952 78.4459 125.879C78.3597 125.825 78.2773 125.765 78.1989 125.7C78.1161 125.633 78.0461 125.552 77.9926 125.46C77.9294 125.33 77.901 125.185 77.9103 125.04C77.9137 125.014 77.9113 124.988 77.9025 124.963C77.8941 124.938 77.8799 124.916 77.8613 124.897C77.8432 124.878 77.8202 124.864 77.7957 124.856C77.7707 124.847 77.7442 124.845 77.7177 124.848H77.5805C77.5374 124.855 77.4933 124.855 77.4502 124.848C77.4281 124.849 77.4066 124.846 77.3865 124.837C77.3659 124.829 77.3478 124.816 77.3336 124.8C77.3154 124.784 77.3017 124.763 77.2934 124.74C77.2851 124.718 77.2821 124.693 77.2851 124.669C77.2851 124.669 77.2851 124.628 77.2851 124.621C77.1968 124.621 77.1091 124.642 77.0312 124.684C76.9533 124.726 76.8872 124.787 76.8386 124.862C76.7357 125.02 76.626 125.178 76.502 125.336C76.4309 125.434 76.3393 125.516 76.2344 125.577C76.1438 125.629 76.0497 125.675 75.9532 125.714C75.8473 125.759 75.7444 125.809 75.644 125.865C75.5239 125.933 75.4171 126.022 75.3279 126.127C75.2206 126.25 75.0755 126.334 74.9158 126.367C74.7168 126.415 74.511 126.457 74.291 126.491C74.071 126.525 73.8583 126.532 73.652 126.539H73.1576C72.9258 126.546 72.6945 126.519 72.4711 126.457C72.3094 126.401 72.155 126.328 72.0109 126.237L71.5851 125.955C71.4063 125.838 71.2147 125.741 71.0147 125.666C70.6918 125.529 70.387 125.351 70.1082 125.137C69.7441 124.871 69.4065 124.572 69.0988 124.243C68.7833 123.913 68.5089 123.546 68.2816 123.15C68.0755 122.807 67.9618 122.416 67.952 122.016C67.9493 121.844 67.9168 121.674 67.8556 121.514C67.798 121.345 67.7247 121.181 67.6357 121.026C67.5468 120.868 67.4574 120.71 67.3614 120.552C67.2783 120.408 67.205 120.258 67.1415 120.105C66.9668 119.664 66.8511 119.202 66.7982 118.73C66.75 118.242 66.7226 117.747 66.7226 117.259C66.7214 116.822 66.7488 116.386 66.8049 115.953C66.8597 115.534 66.9287 115.128 67.0177 114.722C67.107 114.317 67.1827 113.918 67.272 113.519C67.3614 113.121 67.4437 112.708 67.5194 112.275C67.5452 112.037 67.6102 111.805 67.7114 111.588C67.7882 111.438 67.8854 111.299 67.9999 111.175C68.1061 111.057 68.2205 110.947 68.3432 110.845C68.4933 110.712 68.623 110.556 68.728 110.385C68.7763 110.319 68.8111 110.244 68.8311 110.165L68.8789 110.007C68.8848 109.987 68.8954 109.97 68.9099 109.955C68.9244 109.941 68.942 109.93 68.9616 109.924C69.0408 109.909 69.1223 109.909 69.2019 109.924C69.2367 109.926 69.2717 109.919 69.3031 109.904C69.3344 109.888 69.3609 109.864 69.38 109.835C69.4251 109.767 69.4643 109.696 69.4971 109.622L69.6 109.368C69.628 109.292 69.6726 109.224 69.7304 109.168C69.7931 109.119 69.8661 109.084 69.9435 109.065C70.0288 109.04 70.116 109.021 70.2042 109.01L70.4791 108.976C70.5644 108.964 70.6477 108.941 70.7266 108.907L71.2073 108.625C71.3308 108.543 71.4474 108.467 71.5645 108.405C71.69 108.338 71.8242 108.288 71.9624 108.254C72.155 108.217 72.3505 108.201 72.5465 108.206C72.868 108.207 73.1875 108.255 73.4942 108.35L74.4214 108.68C74.7237 108.797 75.0324 108.9 75.3348 109.003C75.6415 109.099 75.9615 109.148 76.283 109.148C76.5098 109.16 76.7328 109.087 76.9072 108.941C77.0641 108.789 77.1841 108.604 77.2576 108.398C77.339 108.158 77.3899 107.909 77.409 107.656C77.409 107.388 77.409 107.127 77.409 106.872C77.4105 106.413 77.388 105.954 77.3399 105.497C77.2924 105.044 77.2576 104.597 77.2439 104.123L77.1135 104.198C77.0224 104.196 76.9347 104.162 76.8661 104.102C76.7906 104.033 76.722 103.964 76.6534 103.889C76.5902 103.813 76.5216 103.742 76.4471 103.676C76.3765 103.614 76.2869 103.58 76.1933 103.58C76.1555 103.574 76.1163 103.58 76.0816 103.597C76.0473 103.614 76.0188 103.642 76.0007 103.676C75.9703 103.747 75.9233 103.811 75.864 103.861H75.5479H74.6208C74.464 103.853 74.3121 103.803 74.1808 103.717C74.0097 103.606 73.8529 103.475 73.7143 103.325C73.5668 103.174 73.4418 103.003 73.3433 102.817C73.2522 102.655 73.2027 102.473 73.1992 102.287C73.2032 102.118 73.2429 101.952 73.3154 101.799C73.3953 101.634 73.4947 101.48 73.6109 101.339C73.7182 101.203 73.8485 101.086 73.9955 100.995C74.1151 100.913 74.2557 100.867 74.4008 100.864C74.5199 100.864 74.6355 100.902 74.7306 100.974C74.8266 101.049 74.9452 101.09 75.0672 101.091C75.2706 101.091 75.4715 101.049 75.6577 100.967C75.8493 100.884 76.0561 100.84 76.2653 100.84C76.4746 100.84 76.6818 100.884 76.8734 100.967C77.0626 101.055 77.2689 101.1 77.4776 101.098C77.6354 101.098 77.7937 101.098 77.9583 101.098H78.4391C78.6101 101.099 78.7801 101.118 78.9472 101.153C79.1217 101.186 79.2858 101.259 79.4279 101.366V101.49C79.4304 101.651 79.4465 101.812 79.4759 101.971C79.5107 102.129 79.5519 102.287 79.5931 102.445C79.6342 102.603 79.6685 102.762 79.7028 102.913C79.7361 103.069 79.7523 103.228 79.7508 103.387C79.7499 103.594 79.7107 103.799 79.6342 103.992C79.5534 104.188 79.5132 104.399 79.5171 104.611C79.5161 105.021 79.5529 105.431 79.6274 105.834C79.7009 106.236 79.7381 106.643 79.7371 107.051C79.7371 108.082 79.7371 109.113 79.7371 110.131C79.7371 111.148 79.7371 112.193 79.7371 113.231C79.7371 114.269 79.7371 115.293 79.6548 116.358C79.572 117.424 79.572 118.421 79.572 119.493C79.572 119.878 79.572 120.318 79.6136 120.799C79.6376 121.264 79.7112 121.725 79.8332 122.174C79.9385 122.568 80.1208 122.937 80.3688 123.26C80.4888 123.403 80.6393 123.516 80.8098 123.591C80.9798 123.666 81.165 123.701 81.3513 123.693C81.4331 123.704 81.5159 123.704 81.5982 123.693C81.6806 123.686 81.7634 123.686 81.8457 123.693C81.9628 123.693 82.0755 123.737 82.1618 123.817C82.2612 123.903 82.3431 124.008 82.4019 124.126C82.4651 124.263 82.5136 124.406 82.5459 124.552C82.5719 124.672 82.5856 124.794 82.5871 124.917ZM77.5257 116.214C77.5242 115.754 77.4948 115.295 77.4365 114.839C77.3816 114.37 77.2733 113.909 77.1135 113.465C76.9812 113.066 76.7681 112.699 76.4883 112.385C76.3643 112.242 76.2119 112.125 76.0404 112.044C75.8689 111.962 75.6827 111.917 75.4925 111.911C75.3828 111.885 75.2799 111.836 75.1902 111.767L74.8335 111.505C74.7168 111.416 74.5997 111.327 74.4831 111.251C74.3915 111.183 74.2817 111.142 74.167 111.134C74.0832 111.134 74.0004 111.156 73.9269 111.196L73.7069 111.34L73.4874 111.478C73.409 111.519 73.3218 111.54 73.2331 111.54C73.0821 111.55 72.9312 111.55 72.7803 111.54C72.6298 111.518 72.4784 111.506 72.3265 111.505C72.0913 111.506 71.859 111.553 71.642 111.644C71.4254 111.735 71.2284 111.868 71.0632 112.035C70.6683 112.412 70.3409 112.854 70.0945 113.341C69.8186 113.874 69.6084 114.44 69.4697 115.025C69.3271 115.566 69.2506 116.122 69.243 116.682C69.243 116.895 69.243 117.101 69.243 117.314C69.2702 117.524 69.284 117.735 69.284 117.946C69.2879 118.068 69.2546 118.188 69.1882 118.29C69.1243 118.381 69.0553 118.468 68.982 118.551C68.9013 118.638 68.8299 118.732 68.7692 118.833C68.7088 118.943 68.6783 119.066 68.6798 119.191H68.8515C69.0525 119.179 69.2516 119.237 69.4148 119.356C69.5496 119.476 69.653 119.627 69.7167 119.796C69.796 119.997 69.8539 120.207 69.8887 120.421C69.9298 120.655 69.9778 120.889 70.0327 121.109C70.0881 121.347 70.1709 121.577 70.2802 121.796C70.3919 122.026 70.5512 122.23 70.7472 122.394C70.8912 122.525 71.0559 122.662 71.2416 122.813C71.4214 122.967 71.6116 123.107 71.8115 123.233C72.0016 123.358 72.2016 123.469 72.4088 123.563C72.5906 123.644 72.7871 123.688 72.9861 123.693C73.287 123.693 73.5849 123.637 73.8652 123.528C74.1445 123.415 74.4424 123.356 74.7438 123.356C74.8673 123.359 74.9898 123.378 75.1084 123.411C75.3206 122.988 75.5714 122.586 75.8566 122.208C76.1159 121.846 76.4765 121.568 76.8935 121.411V121.026C76.8935 120.646 76.9278 120.266 76.9969 119.892C77.0655 119.521 77.141 119.149 77.2233 118.758C77.3061 118.366 77.3884 117.974 77.457 117.568C77.5154 117.119 77.5359 116.667 77.5188 116.214H77.5257Z" fill="black"/>
<path d="M97.0642 122.002C97.0696 122.277 97.0299 122.551 96.9476 122.813C96.8741 123.024 96.7697 123.224 96.6389 123.405C96.5134 123.585 96.3684 123.751 96.2062 123.9L95.7113 124.388C95.6084 124.505 95.4932 124.611 95.3682 124.704C95.2727 124.772 95.1713 124.832 95.0659 124.883C94.965 124.934 94.862 124.98 94.7567 125.02L94.3926 125.212C94.228 125.312 94.0697 125.423 93.9188 125.542L93.5478 125.811C93.418 125.893 93.2798 125.962 93.1362 126.017C92.9544 126.074 92.7682 126.118 92.5795 126.147C92.2017 126.202 91.8308 126.271 91.453 126.354C91.0855 126.435 90.7106 126.477 90.3338 126.477C90.2524 126.476 90.172 126.454 90.1005 126.415L89.8325 126.292C89.7202 126.247 89.6056 126.208 89.4894 126.175C89.3424 126.13 89.1891 126.109 89.0357 126.113C88.8799 126.119 88.725 126.081 88.5893 126.003C88.48 125.934 88.3786 125.854 88.2874 125.762C88.1953 125.666 88.1061 125.563 88.0194 125.453C87.9165 125.336 87.793 125.238 87.6553 125.164C87.1222 124.864 86.6419 124.479 86.2337 124.023C85.8368 123.571 85.4997 123.07 85.2312 122.532C84.9445 121.957 84.7147 121.356 84.5441 120.737C84.3584 120.098 84.2006 119.424 84.0703 118.723C83.9689 118.237 83.9184 117.742 83.9194 117.245C83.915 116.631 84.0394 116.022 84.2834 115.458C84.1903 115.15 84.1418 114.831 84.1389 114.509C84.1575 114.175 84.2104 113.843 84.2972 113.52C84.402 113.07 84.5353 112.626 84.6951 112.193C84.8421 111.779 85.0185 111.377 85.2238 110.99C85.335 110.724 85.5212 110.497 85.7599 110.337C85.8559 110.295 85.9481 110.244 86.0343 110.186C86.0828 110.144 86.1103 110.028 86.1103 109.842C86.1063 109.712 86.1529 109.587 86.2406 109.491C86.3303 109.393 86.4405 109.316 86.563 109.265C86.687 109.203 86.8105 109.155 86.9345 109.106C87.0423 109.067 87.1476 109.021 87.25 108.969C87.5671 108.771 87.8944 108.592 88.2325 108.433C88.5354 108.29 88.8475 108.166 89.1665 108.062C89.4831 107.964 89.8065 107.89 90.1348 107.842C90.492 107.793 90.8522 107.77 91.2129 107.773C91.4162 107.774 91.6186 107.808 91.8102 107.876C92.0072 107.948 92.1958 108.04 92.3732 108.151C92.5589 108.262 92.7378 108.384 92.9093 108.515L93.4243 108.914C93.5669 108.933 93.7032 108.985 93.8227 109.065C93.9447 109.139 94.08 109.188 94.2211 109.21C94.3637 109.422 94.5342 109.614 94.7293 109.78C94.9419 109.966 95.1414 110.151 95.3408 110.351C95.5388 110.542 95.7142 110.757 95.8622 110.99C96.0067 111.225 96.0807 111.497 96.0753 111.774C96.0793 111.819 96.0793 111.865 96.0753 111.911V112.069L96.1302 111.987C96.1802 112.033 96.216 112.093 96.2336 112.159C96.2674 112.241 96.2949 112.33 96.3297 112.433C96.364 112.537 96.3777 112.633 96.3983 112.729C96.4189 112.825 96.3983 112.908 96.4394 112.97C96.5066 113.113 96.608 113.238 96.7349 113.334C96.8672 113.434 96.9716 113.566 97.0368 113.719C96.9407 113.853 96.8922 114.015 96.8996 114.18C96.9005 114.378 96.9329 114.575 96.9956 114.764C97.0578 114.955 97.0907 115.154 97.0917 115.355C97.0917 115.589 97.0917 115.809 97.0917 116.042C97.0917 116.276 97.0917 116.482 97.0917 116.73C97.0961 116.805 97.0843 116.88 97.0569 116.95C97.0299 117.02 96.9878 117.083 96.9339 117.135C96.8261 117.23 96.7085 117.313 96.5835 117.383L96.24 117.589C96.1915 117.623 96.1523 117.668 96.1258 117.721C96.0994 117.774 96.0871 117.832 96.0891 117.892C96.0891 117.981 96.041 118.029 95.9587 118.022H95.6358C95.2232 118.019 94.8135 117.954 94.4201 117.83C94.03 117.701 93.6223 117.633 93.2112 117.63C92.7765 117.631 92.3419 117.67 91.9131 117.747C91.4848 117.824 91.0507 117.863 90.615 117.864C90.2926 117.864 89.9697 117.864 89.6472 117.83C89.3243 117.795 89.0082 117.788 88.6789 117.788C88.5192 117.798 88.3609 117.818 88.2051 117.85C87.9714 117.892 87.7308 117.947 87.4769 118.008C87.228 118.073 86.9825 118.151 86.7419 118.242C86.5645 118.296 86.3994 118.382 86.2543 118.496C86.2494 118.577 86.2494 118.657 86.2543 118.737C86.2636 119.326 86.3945 119.906 86.639 120.442C86.8914 121.022 87.2319 121.56 87.6484 122.037C88.0424 122.503 88.5055 122.907 89.022 123.233C89.4919 123.534 90.0368 123.698 90.5949 123.707C90.9037 123.707 91.206 123.707 91.5079 123.748C91.8161 123.78 92.1165 123.866 92.3943 124.003C92.6413 123.854 92.8716 123.679 93.0808 123.48C93.2871 123.281 93.4929 123.068 93.685 122.848C93.8776 122.628 94.0702 122.394 94.2554 122.16L94.8253 121.473C94.9042 121.406 94.9988 121.361 95.1002 121.342C95.2536 121.299 95.4094 121.265 95.5672 121.239C95.7318 121.239 95.897 121.184 96.0479 121.164H96.364C96.5693 121.162 96.7731 121.204 96.9613 121.287C97.0172 121.522 97.052 121.761 97.0642 122.002ZM95.0042 114.881C95.0022 114.709 94.9792 114.538 94.9356 114.372C94.8861 114.205 94.8469 114.035 94.8184 113.863C94.7758 113.547 94.7533 113.227 94.7498 112.908C94.7498 112.591 94.7131 112.275 94.6401 111.966C94.6386 112.036 94.62 112.105 94.5852 112.165C94.5715 112.194 94.5504 112.219 94.5234 112.236C94.497 112.253 94.4661 112.262 94.4338 112.262C94.3181 112.261 94.2054 112.225 94.1113 112.159C94.0075 112.088 93.9163 111.999 93.8433 111.897C93.4929 111.698 93.1563 111.512 92.8887 111.334C92.6128 111.163 92.3286 111.007 92.0371 110.866C91.7465 110.732 91.4427 110.629 91.1305 110.557C90.7679 110.472 90.397 110.432 90.0246 110.44H89.9217C89.8854 110.449 89.8535 110.471 89.8325 110.502L89.9011 110.694H89.7913C89.537 110.756 89.3307 110.811 89.1665 110.866C89.0097 110.913 88.8612 110.985 88.7265 111.079C88.5903 111.184 88.4619 111.299 88.3423 111.423L87.8611 111.945C87.7783 112.041 87.6783 112.12 87.5661 112.179C87.4612 112.231 87.3534 112.277 87.2432 112.317C87.1334 112.358 87.0374 112.406 86.9345 112.454C86.8311 112.501 86.7468 112.581 86.6939 112.681C86.6277 112.974 86.5312 113.26 86.4052 113.533C86.2818 113.805 86.2181 114.101 86.22 114.399C86.2166 114.571 86.2783 114.738 86.3915 114.867C86.518 115.006 86.6694 115.121 86.8379 115.204C87.03 115.303 87.23 115.385 87.4358 115.451C87.6494 115.519 87.867 115.572 88.088 115.609L88.6789 115.692H89.1043C89.4566 115.693 89.8075 115.649 90.1485 115.561C90.492 115.476 90.8448 115.433 91.1991 115.431C91.5618 115.431 91.9239 115.451 92.2845 115.492C92.6447 115.534 93.0068 115.554 93.3694 115.554H93.7884C93.9746 115.546 94.1598 115.514 94.3377 115.458C94.5097 115.416 94.6714 115.339 94.8116 115.231C94.8581 115.186 94.8949 115.131 94.9184 115.071C94.9419 115.01 94.9527 114.946 94.9493 114.881H95.0042Z" fill="black"/>
<path d="M113.891 116.915C113.893 117.501 113.863 118.086 113.802 118.668C113.74 119.246 113.699 119.83 113.671 120.421C113.609 120.346 113.538 120.279 113.458 120.222C113.385 120.172 113.299 120.146 113.211 120.146C113.101 120.149 112.996 120.194 112.916 120.27C112.872 120.308 112.837 120.356 112.813 120.409C112.789 120.463 112.777 120.521 112.778 120.579C112.772 120.637 112.784 120.695 112.812 120.746C112.84 120.796 112.884 120.837 112.937 120.861C113.04 120.909 113.152 120.934 113.266 120.937C113.333 120.946 113.399 120.946 113.465 120.937C113.462 121.084 113.43 121.229 113.369 121.363C113.313 121.515 113.239 121.66 113.15 121.796C113.063 121.932 112.969 122.062 112.868 122.188L112.614 122.518C112.543 122.61 112.481 122.709 112.428 122.813C112.364 122.943 112.293 123.069 112.215 123.191C112.144 123.305 112.061 123.411 111.968 123.508C111.938 123.545 111.901 123.577 111.858 123.599C111.816 123.622 111.769 123.635 111.721 123.638C111.678 123.64 111.636 123.632 111.597 123.616C111.558 123.599 111.523 123.574 111.494 123.542C111.471 123.513 111.442 123.489 111.409 123.472C111.375 123.456 111.339 123.447 111.302 123.446C111.199 123.446 111.137 123.514 111.11 123.645C111.089 123.777 111.077 123.91 111.075 124.044V124.25C111.075 124.312 110.979 124.387 110.787 124.484C110.595 124.58 110.354 124.676 110.1 124.786C109.846 124.896 109.544 125.013 109.249 125.123C109 125.216 108.756 125.323 108.521 125.446C108.147 125.641 107.759 125.807 107.36 125.941C106.97 126.068 106.561 126.133 106.151 126.133C105.849 126.132 105.55 126.081 105.265 125.982C104.984 125.879 104.695 125.769 104.414 125.645C104.132 125.522 103.843 125.412 103.562 125.315C103.278 125.213 102.978 125.162 102.676 125.164C102.516 125.173 102.358 125.195 102.202 125.233C102.038 125.266 101.884 125.339 101.756 125.446C101.696 125.523 101.65 125.609 101.618 125.7C101.572 125.824 101.518 125.886 101.453 125.886C101.383 125.877 101.315 125.853 101.254 125.817L101.076 125.707C100.858 125.565 100.672 125.378 100.533 125.157C100.379 124.923 100.252 124.672 100.155 124.408C100.051 124.135 99.975 123.851 99.929 123.563C99.8863 123.273 99.8633 122.982 99.8599 122.69C99.8623 122.494 99.8785 122.299 99.9084 122.105C99.9417 121.91 99.9574 121.712 99.9564 121.514C99.9589 121.237 99.9339 120.961 99.8809 120.689C99.831 120.417 99.806 120.141 99.805 119.864C99.8065 119.663 99.8319 119.462 99.8809 119.266C99.9329 119.074 99.9584 118.875 99.9564 118.675C99.9569 118.527 99.929 118.38 99.8736 118.242C99.8182 118.107 99.7903 117.962 99.7913 117.816C99.7864 117.718 99.8182 117.623 99.8809 117.548C99.9397 117.482 99.9716 117.396 99.9701 117.307C99.9701 117.163 99.9701 117.025 99.9701 116.881C99.9701 116.737 99.9701 116.599 99.9701 116.462C99.9701 116.324 99.9701 116.29 99.9701 116.152C99.977 116.021 99.9907 115.89 100.011 115.76C100.023 115.643 100.055 115.529 100.107 115.424C100.122 115.384 100.148 115.35 100.183 115.326C100.217 115.301 100.258 115.287 100.3 115.286C100.471 115.286 100.637 115.417 100.808 115.678C100.993 115.97 101.152 116.278 101.282 116.599C101.422 116.944 101.542 117.298 101.639 117.658C101.717 117.912 101.763 118.175 101.776 118.441C101.778 118.503 101.759 118.564 101.721 118.613C101.706 118.636 101.686 118.655 101.662 118.668C101.638 118.682 101.612 118.689 101.584 118.689C101.631 118.81 101.672 118.934 101.708 119.06C101.748 119.185 101.771 119.314 101.776 119.445C101.778 119.582 101.762 119.718 101.728 119.851C101.695 119.981 101.678 120.115 101.68 120.249C101.679 120.364 101.7 120.479 101.742 120.586C101.782 120.687 101.828 120.786 101.879 120.882C101.931 120.994 101.995 121.1 102.072 121.198C102.119 121.261 102.18 121.313 102.25 121.349C102.321 121.378 102.395 121.399 102.47 121.411L102.779 121.445C102.966 121.777 103.177 122.094 103.411 122.394C103.637 122.679 103.888 122.943 104.159 123.185C104.578 123.301 104.997 123.391 105.403 123.466C105.813 123.535 106.229 123.569 106.646 123.569C106.952 123.575 107.256 123.526 107.545 123.425C107.789 123.334 108.02 123.212 108.232 123.061C108.458 122.905 108.671 122.733 108.871 122.545C109.07 122.346 109.29 122.147 109.509 121.933C109.729 121.72 109.832 121.665 110.011 121.535C110.19 121.404 110.361 121.267 110.526 121.129C110.699 120.989 110.858 120.833 111 120.662C111.154 120.487 111.282 120.29 111.377 120.077C111.451 119.919 111.548 119.773 111.666 119.644C111.788 119.514 111.854 119.342 111.852 119.163C111.856 119.111 111.856 119.058 111.852 119.005C111.817 118.634 111.79 118.27 111.776 117.912C111.763 117.555 111.776 117.19 111.728 116.812C111.726 116.536 111.663 116.264 111.542 116.015C111.449 115.839 111.32 115.685 111.165 115.561C111.007 115.437 110.842 115.314 110.663 115.197C110.47 115.059 110.297 114.894 110.148 114.709C110.004 114.505 109.797 114.355 109.558 114.283C109.332 114.227 109.102 114.192 108.871 114.179C108.638 114.179 108.404 114.145 108.184 114.118C107.943 114.083 107.721 113.969 107.552 113.794C107.514 113.755 107.463 113.73 107.408 113.726C107.318 113.726 107.232 113.76 107.168 113.822C107.094 113.882 107.002 113.916 106.907 113.918C106.762 113.915 106.619 113.892 106.481 113.849L106.062 113.691L105.643 113.513C105.507 113.46 105.367 113.418 105.224 113.389L104.771 113.32C104.662 113.308 104.554 113.287 104.448 113.258C104.338 113.223 104.232 113.177 104.132 113.121C103.988 113.027 103.851 112.923 103.72 112.811C103.258 112.429 102.733 112.131 102.168 111.932C102.06 111.589 101.925 111.255 101.763 110.935L101.467 110.694C101.348 110.615 101.235 110.525 101.13 110.426C101.044 110.228 100.973 110.024 100.918 109.814C100.829 109.519 100.739 109.209 100.657 108.873C100.574 108.536 100.499 108.226 100.444 107.938C100.394 107.73 100.361 107.519 100.348 107.305C100.347 107.047 100.373 106.789 100.423 106.535C100.463 106.281 100.572 106.043 100.739 105.848L100.842 105.752C100.864 105.733 100.882 105.71 100.894 105.684C100.906 105.658 100.911 105.629 100.911 105.601C100.911 105.539 100.877 105.497 100.801 105.47C100.766 105.454 100.737 105.427 100.719 105.394C100.701 105.361 100.693 105.322 100.698 105.284C100.696 105.264 100.696 105.243 100.698 105.222C100.705 105.195 100.705 105.167 100.698 105.14C100.766 104.884 100.865 104.637 100.993 104.404C101.122 104.163 101.271 103.933 101.44 103.717C101.603 103.513 101.777 103.318 101.962 103.133C102.14 102.947 102.319 102.782 102.483 102.631C102.614 102.517 102.721 102.379 102.8 102.225C102.864 102.088 102.961 101.967 103.081 101.875H103.878C103.963 101.84 104.036 101.783 104.091 101.71C104.126 101.648 104.159 101.586 104.2 101.524C104.236 101.467 104.286 101.42 104.345 101.387C104.449 101.343 104.562 101.324 104.674 101.332H104.977H105.286C105.636 101.332 105.972 101.332 106.336 101.332C106.701 101.332 107.023 101.332 107.394 101.332H108.136C108.387 101.34 108.637 101.366 108.885 101.407C109.051 101.434 109.214 101.478 109.372 101.538C109.53 101.605 109.701 101.638 109.873 101.634C109.938 101.642 110.003 101.635 110.065 101.615C110.127 101.595 110.183 101.562 110.231 101.517C110.298 101.436 110.354 101.346 110.396 101.249C110.437 101.159 110.485 101.071 110.54 100.988C110.575 100.944 110.62 100.91 110.672 100.889C110.723 100.867 110.78 100.859 110.835 100.864C111.05 100.873 111.259 100.939 111.439 101.057C111.631 101.177 111.831 101.282 112.037 101.373V101.442C112.003 101.555 111.987 101.674 111.989 101.792C111.989 101.992 112.017 102.191 112.071 102.383C112.119 102.576 112.174 102.768 112.229 102.954C112.284 103.14 112.339 103.325 112.387 103.518C112.441 103.71 112.466 103.909 112.463 104.109C112.474 104.23 112.474 104.352 112.463 104.473C112.455 104.592 112.455 104.712 112.463 104.831C112.449 105.006 112.49 105.181 112.579 105.332C112.641 105.409 112.679 105.502 112.689 105.601C112.69 105.645 112.682 105.689 112.666 105.731C112.649 105.772 112.624 105.81 112.593 105.841C112.556 105.879 112.528 105.925 112.51 105.974C112.493 106.024 112.486 106.077 112.49 106.13C112.489 106.433 112.505 106.736 112.538 107.037C112.538 107.333 112.579 107.635 112.579 107.938C112.579 108.041 112.579 108.199 112.579 108.412C112.573 108.622 112.552 108.831 112.518 109.038C112.493 109.22 112.442 109.399 112.367 109.567C112.347 109.632 112.307 109.69 112.253 109.732C112.199 109.774 112.132 109.798 112.064 109.801C111.987 109.796 111.912 109.775 111.843 109.739C111.775 109.704 111.714 109.655 111.666 109.594C111.544 109.476 111.436 109.345 111.344 109.203C111.222 109.042 111.131 108.86 111.075 108.666C111.019 108.467 110.973 108.266 110.938 108.061C110.903 107.848 110.862 107.642 110.815 107.436C110.77 107.237 110.698 107.045 110.602 106.865C110.457 106.597 110.313 106.329 110.176 106.054L109.784 105.216C109.713 105.058 109.623 104.911 109.517 104.776C109.451 104.702 109.368 104.645 109.276 104.611C109.185 104.582 109.09 104.568 108.994 104.569C108.86 104.565 108.726 104.546 108.596 104.514C108.426 104.477 108.261 104.425 108.102 104.356L107.614 104.157L107.12 103.978C106.956 103.93 106.788 103.905 106.618 103.903C106.336 103.902 106.056 103.956 105.794 104.061C105.504 104.169 105.224 104.3 104.956 104.453C104.681 104.613 104.407 104.778 104.132 104.947C103.881 105.104 103.622 105.246 103.356 105.374C103.119 106.014 103 106.691 103.006 107.374C102.996 107.8 103.043 108.225 103.143 108.639C103.222 108.936 103.352 109.218 103.528 109.471C103.685 109.696 103.873 109.899 104.084 110.076L104.771 110.639C104.971 110.815 105.205 110.951 105.457 111.038C105.711 111.103 105.971 111.135 106.234 111.134C106.391 111.134 106.549 111.134 106.701 111.134C106.852 111.134 107.009 111.134 107.168 111.134C107.339 111.135 107.508 111.166 107.669 111.224C107.827 111.285 107.985 111.354 108.136 111.43C108.287 111.505 108.445 111.567 108.603 111.629C108.759 111.686 108.924 111.716 109.09 111.719C109.242 111.718 109.394 111.706 109.544 111.684C109.689 111.656 109.836 111.643 109.983 111.643C110.11 111.643 110.233 111.684 110.334 111.76C110.441 111.839 110.542 111.926 110.636 112.021C110.736 112.118 110.841 112.21 110.952 112.296C111.054 112.377 111.179 112.425 111.309 112.433C111.494 112.55 111.645 112.66 111.769 112.75C111.886 112.843 111.995 112.944 112.099 113.052C112.204 113.17 112.296 113.299 112.373 113.437C112.463 113.588 112.566 113.774 112.675 114.001C112.773 114.217 112.911 114.413 113.081 114.578C113.252 114.75 113.389 114.953 113.486 115.176C113.522 115.269 113.545 115.366 113.555 115.465C113.561 115.571 113.575 115.677 113.596 115.781C113.61 115.873 113.64 115.961 113.685 116.042C113.705 116.079 113.734 116.11 113.769 116.132C113.803 116.155 113.843 116.169 113.884 116.173C113.891 116.299 113.891 116.425 113.884 116.551C113.891 116.661 113.891 116.785 113.891 116.915Z" fill="black"/>
<path d="M129.034 119.445C129.034 119.8 129.002 120.154 128.938 120.504C128.87 120.834 128.801 121.191 128.711 121.487C128.622 121.782 128.547 122.133 128.457 122.47C128.367 122.806 128.298 123.148 128.251 123.494C128.194 124.011 128.023 124.509 127.75 124.951C127.519 125.321 127.209 125.636 126.843 125.872C126.482 126.105 126.086 126.277 125.669 126.381C125.231 126.494 124.786 126.579 124.336 126.635C123.884 126.697 123.43 126.738 122.963 126.759C122.554 126.777 122.145 126.818 121.74 126.883C121.607 126.76 121.491 126.619 121.397 126.463L121.129 126.03C121.056 125.905 120.961 125.793 120.847 125.7C120.738 125.605 120.595 125.556 120.45 125.563C120.387 125.563 120.346 125.467 120.312 125.274C120.278 125.082 120.25 124.869 120.223 124.628C120.195 124.388 120.168 124.174 120.134 123.975C120.099 123.776 120.058 123.686 120.003 123.686C119.911 123.693 119.819 123.682 119.731 123.652C119.644 123.623 119.564 123.576 119.495 123.515C119.362 123.391 119.261 123.238 119.2 123.068C119.127 122.873 119.081 122.67 119.062 122.463C119.037 122.246 119.026 122.028 119.028 121.81C119.028 121.654 118.997 121.5 118.938 121.356C118.883 121.212 118.822 121.074 118.76 120.944C118.698 120.813 118.637 120.669 118.581 120.531C118.521 120.392 118.491 120.242 118.492 120.091C118.492 119.912 118.492 119.699 118.492 119.404C118.492 119.108 118.526 118.868 118.54 118.593L118.581 117.768C118.581 117.493 118.581 117.273 118.581 117.08C118.577 116.902 118.598 116.724 118.643 116.551C118.681 116.423 118.729 116.299 118.787 116.18L118.932 115.905C118.98 115.819 119.003 115.721 119 115.623C119.005 115.501 118.976 115.38 118.918 115.272C118.871 115.186 118.845 115.089 118.842 114.991C118.844 114.859 118.877 114.729 118.938 114.613C119.005 114.494 119.054 114.367 119.083 114.234C119.183 113.732 119.234 113.221 119.234 112.708C119.234 112.605 119.234 112.502 119.234 112.399V112.11C119.05 111.907 118.811 111.759 118.547 111.684C118.293 111.616 118.033 111.567 117.771 111.54C117.51 111.54 117.256 111.471 117.016 111.43C116.774 111.382 116.558 111.251 116.404 111.059C116.261 110.888 116.135 110.703 116.027 110.509C115.933 110.32 115.774 110.171 115.58 110.089C115.454 110.038 115.34 109.958 115.25 109.856C115.158 109.734 115.111 109.583 115.12 109.429C115.104 109.196 115.178 108.965 115.326 108.783C115.462 108.636 115.625 108.517 115.807 108.433C115.993 108.343 116.186 108.267 116.384 108.206C116.573 108.15 116.747 108.051 116.892 107.917C116.958 107.853 117.037 107.803 117.123 107.77C117.209 107.737 117.301 107.721 117.393 107.725H117.881C118.083 107.733 118.283 107.683 118.458 107.58C118.613 107.48 118.739 107.34 118.822 107.175C118.917 106.99 118.978 106.79 119 106.584C119.036 106.356 119.054 106.126 119.055 105.896C119.056 105.533 119.035 105.171 118.993 104.81C118.959 104.459 118.938 104.123 118.938 103.717C118.934 103.316 118.983 102.916 119.083 102.528C119.177 102.156 119.358 101.812 119.612 101.524C119.679 101.455 119.739 101.379 119.79 101.297C119.859 101.201 119.927 101.112 120.003 101.022C120.07 100.943 120.146 100.871 120.23 100.809C120.299 100.752 120.387 100.72 120.477 100.72C120.528 100.719 120.578 100.733 120.621 100.761C120.668 100.796 120.712 100.835 120.751 100.878C120.902 101.055 121.036 101.246 121.15 101.449C121.213 101.582 121.243 101.728 121.239 101.875C121.239 101.971 121.239 102.074 121.239 102.184C121.239 102.294 121.239 102.439 121.239 102.61C121.241 102.982 121.278 103.353 121.349 103.717C121.419 104.024 121.458 104.337 121.466 104.652C121.466 104.869 121.432 105.085 121.363 105.291C121.289 105.496 121.251 105.713 121.253 105.931C121.253 106.084 121.284 106.236 121.342 106.377C121.402 106.514 121.474 106.645 121.555 106.769C121.633 106.898 121.704 107.031 121.768 107.168C121.84 107.313 121.875 107.473 121.871 107.635C122.062 107.75 122.275 107.823 122.496 107.848C122.854 107.923 123.216 107.976 123.581 108.007C123.98 108.048 124.385 108.082 124.797 108.103C125.209 108.123 125.545 108.144 125.813 108.144C126.001 108.136 126.189 108.159 126.37 108.213C126.483 108.253 126.593 108.301 126.699 108.357C126.784 108.407 126.865 108.465 126.939 108.529C127.028 108.588 127.13 108.623 127.235 108.632C127.372 108.654 127.503 108.706 127.62 108.783C127.68 108.839 127.726 108.909 127.754 108.987C127.781 109.065 127.789 109.148 127.777 109.23C127.795 109.444 127.746 109.658 127.638 109.844C127.53 110.03 127.368 110.178 127.173 110.268C127 110.347 126.814 110.396 126.624 110.412C126.443 110.422 126.262 110.422 126.081 110.412C125.806 110.412 125.538 110.412 125.27 110.412C125.003 110.412 124.728 110.378 124.46 110.378C124.052 110.37 123.645 110.424 123.252 110.536C122.901 110.633 122.579 110.812 122.311 111.059C122.028 111.328 121.815 111.664 121.693 112.035C121.536 112.525 121.464 113.039 121.48 113.554C121.478 114.139 121.508 114.725 121.569 115.307C121.63 115.889 121.659 116.474 121.658 117.06C121.658 117.623 121.658 118.077 121.658 118.435C121.663 118.728 121.719 119.019 121.823 119.294C121.95 119.673 122.046 120.061 122.112 120.456C122.182 120.869 122.279 121.277 122.4 121.679C122.497 122.033 122.663 122.365 122.887 122.655C123.001 122.789 123.143 122.894 123.304 122.962C123.465 123.03 123.64 123.059 123.815 123.047C124.002 123.042 124.188 123.019 124.371 122.978C124.607 122.929 124.837 122.856 125.058 122.758C125.278 122.666 125.48 122.535 125.656 122.373C125.735 122.299 125.799 122.208 125.841 122.108C125.884 122.007 125.905 121.898 125.903 121.789C125.904 121.58 125.856 121.373 125.765 121.184C125.671 120.968 125.624 120.733 125.628 120.497C125.623 120.347 125.654 120.199 125.717 120.064C125.777 119.942 125.855 119.83 125.951 119.734C126.049 119.639 126.151 119.549 126.26 119.466L126.575 119.266C126.733 119.002 126.937 118.769 127.18 118.579C127.395 118.402 127.664 118.305 127.942 118.304C128.128 118.304 128.311 118.346 128.478 118.428C128.652 118.511 128.813 118.617 128.959 118.744C129 118.976 129.025 119.21 129.034 119.445Z" fill="black"/>
<path d="M145.182 117.988C145.183 118.143 145.162 118.298 145.119 118.448C145.086 118.579 145.037 118.706 144.975 118.826C144.935 118.916 144.89 119.004 144.838 119.088L144.776 119.211C144.778 119.34 144.808 119.467 144.866 119.583C144.927 119.714 144.957 119.857 144.955 120.002C144.958 120.029 144.954 120.057 144.943 120.082C144.932 120.108 144.915 120.13 144.893 120.146C144.853 120.168 144.808 120.18 144.763 120.181C144.69 120.182 144.618 120.17 144.549 120.146C144.549 120.366 144.549 120.579 144.597 120.792C144.625 121.009 144.639 121.227 144.639 121.445C144.657 121.666 144.629 121.889 144.556 122.098C144.529 122.178 144.473 122.244 144.399 122.284C144.344 122.307 144.291 122.335 144.24 122.367C144.185 122.367 144.165 122.504 144.165 122.69C144.146 122.837 144.084 122.976 143.986 123.088C143.861 123.265 143.721 123.43 143.567 123.583C143.416 123.74 143.247 123.881 143.066 124.003C142.948 124.099 142.805 124.161 142.654 124.181C142.622 124.188 142.589 124.188 142.558 124.181C142.558 124.271 142.558 124.374 142.558 124.477C142.558 124.58 142.558 124.683 142.558 124.779C142.558 124.876 142.523 125.034 142.448 125.082C142.368 125.139 142.283 125.19 142.194 125.233C142.034 125.332 141.889 125.453 141.761 125.59C141.617 125.749 141.459 125.914 141.301 126.072C141.153 126.229 140.992 126.374 140.82 126.505C140.677 126.623 140.497 126.688 140.312 126.69C140.163 126.688 140.018 126.638 139.9 126.546C139.772 126.454 139.618 126.405 139.461 126.409C139.333 126.406 139.206 126.432 139.09 126.484C138.99 126.538 138.894 126.598 138.802 126.663C138.715 126.725 138.626 126.782 138.533 126.835C138.435 126.89 138.324 126.918 138.211 126.917C137.95 126.91 137.697 126.826 137.482 126.677C137.265 126.534 137.034 126.409 136.796 126.305C136.661 126.245 136.52 126.199 136.377 126.168L135.944 126.072C135.804 126.037 135.669 125.981 135.546 125.907C135.414 125.823 135.303 125.713 135.216 125.584C135.034 125.293 134.801 125.037 134.529 124.827C134.268 124.628 134.001 124.443 133.733 124.264C133.465 124.085 133.204 123.906 132.957 123.714C132.679 123.508 132.445 123.249 132.27 122.951C132.132 122.703 131.975 122.442 131.796 122.153C131.615 121.86 131.45 121.557 131.301 121.246C131.15 120.935 131.021 120.613 130.917 120.284C130.818 119.972 130.767 119.648 130.766 119.321C130.766 119.091 130.785 118.861 130.821 118.634C130.855 118.414 130.896 118.187 130.937 117.946C130.978 117.706 131.019 117.493 131.054 117.259C131.096 117.032 131.117 116.802 131.116 116.572V116.379C131.115 116.324 131.1 116.27 131.075 116.221C131.045 116.164 131.014 116.109 130.978 116.056C130.952 116.004 130.919 115.956 130.883 115.912L130.821 115.85C130.837 115.688 130.862 115.528 130.896 115.369C130.937 115.149 130.986 114.929 131.041 114.681C131.095 114.434 131.157 114.241 131.212 114.049C131.24 113.915 131.291 113.787 131.363 113.671L131.521 113.485C131.579 113.413 131.608 113.323 131.604 113.231C131.604 113.128 131.604 113.025 131.604 112.922C131.597 112.821 131.597 112.72 131.604 112.619C131.604 112.475 131.604 112.392 131.645 112.365C131.658 112.348 131.675 112.336 131.694 112.327C131.713 112.319 131.734 112.315 131.754 112.317C131.8 112.326 131.847 112.326 131.892 112.317C131.94 112.317 131.988 112.241 132.029 112.138C132.119 111.925 132.194 111.725 132.276 111.547C132.35 111.373 132.437 111.205 132.538 111.045C132.629 110.895 132.735 110.755 132.854 110.626C132.987 110.485 133.137 110.36 133.3 110.254C133.459 110.142 133.607 110.013 133.74 109.869L134.179 109.416C134.318 109.274 134.47 109.145 134.632 109.031C134.775 108.926 134.949 108.87 135.127 108.873C135.382 108.873 135.634 108.814 135.861 108.701C136.082 108.595 136.312 108.51 136.548 108.446L137.689 108.247C138.067 108.184 138.451 108.151 138.835 108.151C139.101 108.158 139.365 108.202 139.618 108.281C139.938 108.378 140.252 108.493 140.559 108.625C140.873 108.76 141.176 108.918 141.466 109.1C141.716 109.244 141.947 109.419 142.153 109.622V109.677C142.153 109.847 142.13 110.015 142.084 110.179C142.038 110.342 142.015 110.511 142.016 110.681V110.749V110.784C142.169 110.783 142.323 110.758 142.468 110.708C142.613 110.653 142.767 110.625 142.922 110.626C142.921 110.705 142.94 110.783 142.976 110.853C143.011 110.924 143.063 110.985 143.128 111.031L143.492 111.224C143.629 111.32 143.737 111.45 143.808 111.602C143.911 111.799 144.001 112.003 144.076 112.214C144.165 112.44 144.24 112.667 144.323 112.901C144.384 113.089 144.462 113.27 144.556 113.444C144.634 113.607 144.7 113.774 144.755 113.946C144.818 114.144 144.867 114.346 144.907 114.551C144.949 114.757 144.979 114.966 144.996 115.176C145.005 115.366 145.005 115.557 144.996 115.747C145.002 115.947 144.967 116.145 144.893 116.331C144.83 116.479 144.754 116.622 144.667 116.757L144.433 117.108C144.363 117.221 144.327 117.353 144.33 117.486C144.329 117.563 144.343 117.641 144.371 117.713C144.4 117.781 144.438 117.845 144.481 117.905C144.519 117.885 144.561 117.873 144.604 117.871C144.631 117.867 144.654 117.854 144.671 117.834C144.688 117.813 144.696 117.787 144.694 117.761C144.692 117.667 144.66 117.576 144.604 117.5C144.54 117.412 144.506 117.306 144.508 117.197C144.505 117.161 144.505 117.124 144.508 117.087C144.508 117.032 144.556 117.005 144.584 117.005C144.611 117.005 144.694 117.053 144.749 117.135C144.804 117.218 144.859 117.321 144.907 117.417C144.952 117.5 144.993 117.585 145.03 117.672C145.03 117.74 145.072 117.768 145.072 117.74C145.072 117.795 145.072 117.85 145.072 117.885C145.072 117.919 145.182 117.94 145.182 117.988ZM143.808 118.125C143.808 117.94 143.753 117.823 143.636 117.782C143.516 117.74 143.392 117.715 143.265 117.706C143.127 117.695 142.989 117.677 142.853 117.651C142.786 117.64 142.725 117.609 142.676 117.563C142.627 117.516 142.593 117.456 142.578 117.39V117.211C142.574 116.909 142.548 116.609 142.503 116.31C142.448 115.967 142.386 115.616 142.317 115.259C142.242 114.901 142.16 114.571 142.077 114.207C141.994 113.843 141.912 113.554 141.844 113.279C141.775 113.004 141.679 112.715 141.589 112.385C141.532 112.407 141.472 112.419 141.411 112.42C141.265 112.422 141.122 112.381 140.999 112.303L140.607 112.035C140.439 111.933 140.262 111.845 140.078 111.774C139.811 111.682 139.53 111.64 139.248 111.65C138.87 111.649 138.493 111.617 138.121 111.554C137.746 111.491 137.368 111.458 136.988 111.457C136.467 111.458 135.958 111.614 135.525 111.904C135.055 112.218 134.647 112.616 134.323 113.08C133.619 114.106 133.236 115.32 133.224 116.565C133.224 116.819 133.224 117.122 133.224 117.465C133.224 117.809 133.259 118.153 133.293 118.503C133.327 118.829 133.389 119.151 133.478 119.466C133.535 119.72 133.653 119.956 133.822 120.153V120.641C133.841 120.664 133.863 120.684 133.889 120.698C133.915 120.712 133.943 120.721 133.973 120.724H134.152C134.204 120.712 134.258 120.712 134.309 120.724C134.338 120.737 134.364 120.757 134.384 120.782C134.405 120.807 134.419 120.837 134.426 120.868C134.509 121.231 134.671 121.571 134.9 121.865C135.083 122.083 135.293 122.278 135.525 122.442L136.212 122.916C136.464 123.099 136.675 123.334 136.83 123.604H137.063H137.304C137.597 123.601 137.889 123.627 138.176 123.679C138.457 123.734 138.742 123.762 139.028 123.762C139.332 123.762 139.626 123.655 139.858 123.46C140.117 123.25 140.334 122.993 140.497 122.703C140.607 122.504 140.71 122.339 140.8 122.195C140.889 122.05 140.992 121.927 141.088 121.803C141.186 121.678 141.294 121.561 141.411 121.452C141.521 121.342 141.658 121.212 141.816 121.074L142.022 120.895C142.105 120.823 142.183 120.745 142.256 120.662C142.331 120.58 142.4 120.493 142.462 120.401C142.513 120.325 142.541 120.237 142.544 120.146C142.555 120.041 142.555 119.935 142.544 119.83C142.523 119.726 142.511 119.62 142.51 119.514C142.512 119.371 142.526 119.228 142.551 119.088C142.578 118.927 142.621 118.771 142.681 118.62C142.732 118.481 142.809 118.353 142.908 118.242C142.947 118.194 142.996 118.155 143.052 118.129C143.108 118.103 143.169 118.09 143.231 118.091C143.34 118.091 143.447 118.122 143.54 118.18C143.643 118.235 143.738 118.304 143.821 118.386C143.774 118.27 143.787 118.187 143.787 118.125H143.808Z" fill="black"/>
<path d="M64.3374 117.285C64.3382 117.441 64.3174 117.596 64.2754 117.746C64.2413 117.877 64.1932 118.004 64.1312 118.124C64.0912 118.214 64.0454 118.301 63.9937 118.385L63.9321 118.509C63.9337 118.638 63.9639 118.765 64.0211 118.88C64.0822 119.011 64.1128 119.155 64.1104 119.299C64.1136 119.327 64.1097 119.355 64.0987 119.38C64.0881 119.405 64.0709 119.427 64.0489 119.444C64.0086 119.466 63.9639 119.478 63.9184 119.478C63.8459 119.479 63.7738 119.468 63.7052 119.444C63.7052 119.664 63.7052 119.877 63.7534 120.09C63.7812 120.307 63.795 120.525 63.7946 120.743C63.8126 120.964 63.7844 121.187 63.7123 121.396C63.6844 121.476 63.6284 121.542 63.5543 121.582C63.4994 121.605 63.4469 121.633 63.3964 121.664C63.3415 121.664 63.3207 121.802 63.3207 121.987C63.3023 122.135 63.24 122.274 63.142 122.386C63.017 122.563 62.8767 122.728 62.723 122.881C62.5714 123.038 62.4033 123.178 62.2218 123.3C62.1034 123.397 61.9612 123.458 61.8099 123.479C61.7781 123.486 61.7452 123.486 61.7138 123.479C61.7138 123.568 61.7138 123.671 61.7138 123.775C61.7138 123.878 61.7138 123.981 61.7138 124.077C61.7138 124.173 61.6793 124.331 61.6037 124.38C61.5234 124.437 61.4383 124.487 61.3498 124.531C61.1903 124.63 61.0448 124.75 60.9171 124.888C60.7729 125.046 60.6149 125.211 60.4569 125.369C60.3088 125.527 60.1477 125.671 59.9761 125.802C59.8326 125.92 59.6535 125.986 59.4677 125.988C59.3184 125.986 59.1738 125.935 59.0558 125.844C58.928 125.751 58.7738 125.703 58.6163 125.706C58.4886 125.704 58.362 125.73 58.2454 125.782C58.1458 125.836 58.0496 125.895 57.9569 125.961C57.8708 126.023 57.7814 126.08 57.6891 126.132C57.5906 126.188 57.4793 126.216 57.3663 126.215C57.1053 126.208 56.8522 126.124 56.6383 125.974C56.4203 125.831 56.1905 125.707 55.9515 125.603C55.817 125.543 55.6766 125.497 55.5326 125.466L55.0999 125.369C54.9596 125.335 54.8253 125.279 54.7016 125.204C54.5706 125.121 54.4583 125.011 54.3719 124.881C54.1896 124.59 53.957 124.334 53.6851 124.125C53.4241 123.926 53.1563 123.74 52.8884 123.561C52.6206 123.383 52.3596 123.204 52.1124 123.012C51.8345 122.806 51.6009 122.546 51.4256 122.248C51.2882 122.001 51.1302 121.74 50.9517 121.451C50.7706 121.158 50.6056 120.855 50.4572 120.544C50.3061 120.233 50.1775 119.911 50.0726 119.581C49.9738 119.27 49.9229 118.946 49.9215 118.619C49.9219 118.389 49.9403 118.159 49.9764 117.932C50.0108 117.712 50.052 117.485 50.0932 117.244C50.1344 117.004 50.1756 116.79 50.21 116.557C50.252 116.33 50.2727 116.1 50.2718 115.869V115.677C50.2702 115.622 50.2561 115.568 50.2306 115.519C50.2016 115.462 50.1695 115.407 50.1344 115.354C50.108 115.302 50.0758 115.254 50.0383 115.209L49.9764 115.148C49.9925 114.986 50.0177 114.825 50.052 114.666C50.0932 114.446 50.1413 114.226 50.1962 113.979C50.2512 113.731 50.313 113.539 50.3679 113.347C50.3959 113.213 50.4471 113.085 50.519 112.968L50.677 112.783C50.7345 112.711 50.7638 112.621 50.7594 112.529C50.7594 112.425 50.7594 112.322 50.7594 112.219C50.7524 112.118 50.7524 112.017 50.7594 111.917C50.7594 111.772 50.7594 111.69 50.8006 111.662C50.8137 111.646 50.8305 111.633 50.8497 111.625C50.8688 111.617 50.8896 111.613 50.9105 111.614C50.9558 111.624 51.0026 111.624 51.0478 111.614C51.0959 111.614 51.144 111.539 51.1852 111.436C51.2745 111.222 51.3501 111.023 51.4325 110.844C51.5056 110.67 51.5928 110.502 51.6934 110.343C51.7848 110.193 51.8906 110.052 52.0093 109.923C52.143 109.782 52.2928 109.658 52.4558 109.552C52.6153 109.439 52.7626 109.31 52.8953 109.167L53.3349 108.713C53.4737 108.571 53.6255 108.442 53.7881 108.328C53.9314 108.223 54.105 108.168 54.2826 108.17C54.5376 108.171 54.7891 108.112 55.0175 107.998C55.2383 107.893 55.4681 107.808 55.7043 107.744L56.8443 107.545C57.2234 107.481 57.607 107.449 57.9912 107.449C58.257 107.456 58.5205 107.5 58.7742 107.579C59.0941 107.676 59.4082 107.79 59.715 107.923C60.029 108.057 60.3319 108.216 60.6215 108.397C60.872 108.541 61.1028 108.717 61.3086 108.92V108.975C61.309 109.144 61.2859 109.313 61.2396 109.476C61.1938 109.64 61.1707 109.809 61.171 109.978V110.047V110.081C61.3255 110.081 61.4783 110.055 61.6245 110.006C61.7691 109.951 61.9227 109.923 62.0775 109.923C62.0771 110.002 62.0956 110.081 62.1312 110.151C62.1673 110.222 62.2194 110.283 62.2837 110.329L62.6478 110.521C62.7846 110.617 62.8935 110.748 62.9637 110.899C63.0675 111.097 63.1569 111.301 63.2314 111.511C63.3207 111.738 63.3964 111.965 63.4787 112.199C63.5402 112.386 63.6182 112.568 63.7123 112.742C63.7899 112.904 63.8565 113.072 63.9114 113.243C63.9729 113.442 64.0235 113.644 64.0626 113.848C64.1054 114.055 64.1351 114.264 64.1516 114.474C64.1614 114.664 64.1614 114.854 64.1516 115.044C64.1579 115.244 64.1226 115.443 64.0489 115.629C63.9858 115.777 63.9102 115.92 63.822 116.055L63.5884 116.406C63.5183 116.519 63.4826 116.65 63.4857 116.784C63.4845 116.861 63.4987 116.938 63.5269 117.01C63.5567 117.078 63.5935 117.143 63.6366 117.203C63.675 117.183 63.717 117.171 63.7605 117.169C63.7863 117.165 63.8103 117.152 63.8267 117.131C63.8435 117.111 63.8514 117.085 63.8494 117.059C63.8471 116.964 63.8161 116.873 63.7605 116.797C63.6958 116.71 63.6621 116.604 63.664 116.495C63.6609 116.458 63.6609 116.421 63.664 116.385C63.664 116.33 63.7123 116.302 63.7397 116.302C63.7671 116.302 63.8494 116.35 63.9047 116.433C63.9596 116.515 64.0145 116.619 64.0626 116.715C64.1081 116.797 64.1493 116.882 64.1861 116.969C64.1861 117.038 64.2272 117.065 64.2272 117.038C64.2272 117.093 64.2272 117.148 64.2272 117.182C64.2272 117.217 64.3374 117.237 64.3374 117.285ZM62.9637 117.423C62.9637 117.237 62.9088 117.12 62.792 117.079C62.6721 117.038 62.5475 117.013 62.4209 117.004C62.2829 116.993 62.1454 116.975 62.009 116.949C61.9423 116.938 61.8804 116.907 61.8314 116.86C61.7824 116.814 61.7487 116.753 61.7342 116.687V116.509C61.7295 116.207 61.704 115.906 61.6586 115.608C61.6037 115.264 61.5418 114.914 61.4732 114.556C61.3976 114.199 61.3153 113.869 61.2329 113.505C61.1507 113.14 61.0679 112.852 60.9994 112.577C60.9308 112.302 60.8347 112.013 60.7454 111.683C60.6882 111.705 60.6278 111.716 60.5667 111.717C60.4209 111.72 60.2774 111.679 60.1548 111.601L59.7633 111.332C59.5947 111.23 59.4179 111.143 59.2345 111.071C58.9671 110.98 58.6856 110.938 58.4034 110.947C58.0259 110.947 57.6492 110.915 57.277 110.851C56.9025 110.788 56.5235 110.756 56.1438 110.755C55.6228 110.756 55.1138 110.911 54.6809 111.202C54.2107 111.515 53.803 111.914 53.4791 112.377C52.7747 113.404 52.3922 114.617 52.3802 115.862C52.3802 116.117 52.3802 116.419 52.3802 116.763C52.3802 117.107 52.4145 117.45 52.4489 117.801C52.4829 118.127 52.5449 118.448 52.6344 118.763C52.6903 119.017 52.8083 119.254 52.9777 119.451V119.939C52.9961 119.962 53.0189 119.981 53.0449 119.995C53.0708 120.01 53.0994 120.018 53.1289 120.021H53.3074C53.3594 120.01 53.4133 120.01 53.4653 120.021C53.4944 120.035 53.52 120.055 53.5403 120.08C53.5605 120.105 53.5748 120.134 53.5821 120.166C53.6653 120.529 53.827 120.869 54.056 121.162C54.2384 121.381 54.4485 121.575 54.6809 121.74L55.3678 122.214C55.62 122.397 55.8306 122.631 55.9859 122.902H56.2194H56.4597C56.7522 122.899 57.0443 122.924 57.332 122.977C57.6126 123.032 57.8977 123.059 58.1836 123.06C58.4875 123.06 58.7818 122.953 59.0146 122.757C59.2729 122.547 59.4893 122.291 59.6531 122.001C59.7633 121.802 59.8663 121.637 59.9553 121.492C60.0446 121.348 60.1477 121.224 60.2437 121.101C60.3425 120.976 60.4503 120.858 60.5667 120.75C60.6764 120.64 60.814 120.509 60.972 120.372L61.1781 120.193C61.2608 120.12 61.3388 120.042 61.4113 119.959C61.4869 119.878 61.5559 119.791 61.6175 119.698C61.6684 119.623 61.697 119.535 61.6997 119.444C61.7103 119.339 61.7103 119.233 61.6997 119.128C61.6786 119.024 61.6672 118.918 61.6656 118.811C61.668 118.669 61.6817 118.526 61.7068 118.385C61.7334 118.225 61.777 118.068 61.8373 117.918C61.8882 117.779 61.9651 117.65 62.0638 117.54C62.1026 117.492 62.152 117.453 62.2077 117.427C62.2637 117.4 62.3249 117.387 62.3868 117.389C62.4961 117.389 62.6031 117.42 62.6956 117.478C62.7991 117.532 62.8943 117.602 62.9774 117.684C62.9292 117.567 62.9429 117.485 62.9429 117.423H62.9637Z" fill="black"/>
<path d="M162.481 112.86C162.488 113.065 162.451 113.269 162.371 113.458C162.297 113.618 162.215 113.774 162.124 113.925C162.035 114.07 161.946 114.221 161.863 114.372C161.766 114.538 161.706 114.723 161.685 114.915C161.607 114.869 161.52 114.838 161.431 114.826C161.339 114.819 161.247 114.819 161.156 114.826C160.926 114.825 160.696 114.844 160.469 114.881C160.255 114.925 160.036 114.945 159.817 114.943C159.698 114.944 159.581 114.919 159.474 114.869C159.368 114.819 159.273 114.745 159.199 114.654C159.026 114.451 158.893 114.218 158.807 113.966C158.707 113.672 158.64 113.368 158.608 113.059C158.571 112.772 158.552 112.483 158.553 112.193C158.554 111.857 158.595 111.522 158.677 111.196C158.616 111.161 158.547 111.143 158.477 111.141C158.426 111.137 158.375 111.148 158.33 111.173C158.285 111.197 158.248 111.234 158.223 111.279C158.205 111.321 158.174 111.358 158.135 111.384C158.096 111.409 158.05 111.423 158.003 111.423C157.96 111.422 157.918 111.41 157.88 111.39C157.842 111.37 157.809 111.341 157.784 111.306C157.754 111.271 157.718 111.242 157.676 111.223C157.635 111.204 157.589 111.195 157.543 111.196C157.359 111.21 157.181 111.267 157.021 111.361C156.804 111.479 156.601 111.622 156.417 111.787C156.23 111.96 156.059 112.152 155.909 112.358C155.777 112.528 155.7 112.734 155.689 112.949C155.493 112.972 155.305 113.04 155.14 113.148C154.968 113.26 154.802 113.381 154.645 113.513C154.509 113.628 154.404 113.777 154.343 113.946C154.25 114.156 154.172 114.371 154.109 114.592L153.903 115.279C153.845 115.483 153.762 115.68 153.656 115.864C153.502 116.113 153.364 116.372 153.244 116.64C153.126 116.921 153.068 117.223 153.072 117.527C153.072 117.946 153.123 118.364 153.224 118.771C153.325 119.192 153.376 119.624 153.375 120.057C153.376 120.337 153.359 120.617 153.326 120.895C153.326 121.177 153.279 121.452 153.279 121.72C153.267 121.991 153.316 122.261 153.423 122.511C153.501 122.698 153.629 122.859 153.794 122.978C153.958 123.091 154.146 123.166 154.343 123.198C154.55 123.232 154.758 123.248 154.968 123.246C155.201 123.246 155.421 123.246 155.655 123.246C155.888 123.246 156.081 123.246 156.266 123.246C156.324 123.323 156.362 123.413 156.376 123.508C156.386 123.592 156.386 123.678 156.376 123.762C156.376 123.851 156.376 123.941 156.321 124.023C156.294 124.124 156.282 124.228 156.286 124.333C156.279 124.392 156.279 124.452 156.286 124.511C156.417 124.515 156.544 124.471 156.644 124.388C156.759 124.284 156.838 124.147 156.87 123.996C156.934 124.022 156.992 124.059 157.042 124.106C157.069 124.132 157.09 124.165 157.103 124.2C157.116 124.236 157.121 124.274 157.117 124.312C157.118 124.383 157.104 124.453 157.076 124.518C157.05 124.583 157.017 124.645 156.98 124.704C156.944 124.761 156.912 124.821 156.884 124.882C156.856 124.952 156.842 125.027 156.843 125.102C156.84 125.153 156.84 125.203 156.843 125.254C156.847 125.3 156.861 125.344 156.884 125.384C156.846 125.47 156.777 125.539 156.692 125.577C156.611 125.611 156.525 125.63 156.438 125.632C156.308 125.638 156.18 125.607 156.067 125.542C155.973 125.488 155.886 125.423 155.806 125.35L155.586 125.157C155.555 125.128 155.519 125.105 155.478 125.089C155.438 125.074 155.396 125.067 155.352 125.068C155.296 125.061 155.238 125.061 155.181 125.068L154.961 125.157C154.89 125.193 154.823 125.237 154.762 125.288C154.716 125.326 154.686 125.38 154.68 125.439C154.679 125.527 154.706 125.614 154.755 125.687C154.809 125.755 154.838 125.84 154.837 125.927C154.839 125.963 154.833 125.999 154.821 126.032C154.808 126.065 154.787 126.095 154.762 126.12C154.718 126.17 154.661 126.206 154.597 126.223L154.398 126.257H154.219C153.855 126.258 153.492 126.207 153.141 126.106C152.79 126.011 152.427 125.962 152.063 125.962C151.886 125.961 151.713 126.008 151.562 126.099C151.398 126.191 151.213 126.239 151.026 126.237C150.985 126.241 150.944 126.236 150.904 126.223C150.865 126.21 150.829 126.189 150.799 126.161C150.746 126.107 150.702 126.044 150.669 125.975C150.631 125.91 150.587 125.848 150.538 125.79C150.511 125.763 150.479 125.743 150.443 125.73C150.408 125.717 150.37 125.712 150.332 125.714C150.156 125.713 149.98 125.736 149.81 125.783L149.295 125.934L148.78 126.072C148.607 126.113 148.429 126.134 148.251 126.134C148.14 126.131 148.03 126.117 147.921 126.092C147.79 126.058 147.662 126.007 147.544 125.941C147.425 125.875 147.32 125.786 147.235 125.68C147.151 125.569 147.107 125.434 147.111 125.295C147.122 125.162 147.167 125.034 147.242 124.924C147.334 124.769 147.435 124.62 147.544 124.477C147.643 124.34 147.757 124.214 147.88 124.099C147.99 123.996 148.073 123.941 148.128 123.941H148.567C148.709 123.941 148.86 123.941 149.02 123.941C149.282 123.94 149.541 123.889 149.783 123.789C150.036 123.691 150.269 123.547 150.47 123.363C150.685 123.172 150.858 122.938 150.977 122.676C151.113 122.378 151.18 122.054 151.176 121.727C151.176 121.576 151.176 121.425 151.176 121.28C151.167 121.132 151.167 120.982 151.176 120.834C151.176 120.527 151.204 120.221 151.259 119.919C151.314 119.618 151.342 119.312 151.342 119.005C151.341 118.586 151.306 118.168 151.239 117.754C151.168 117.327 151.131 116.895 151.129 116.462C151.129 116.077 151.129 115.692 151.129 115.314C151.129 114.936 151.129 114.551 151.129 114.166C151.129 113.987 151.129 113.733 151.129 113.389C151.117 113.048 151.085 112.709 151.033 112.372C150.991 112.065 150.912 111.765 150.799 111.478C150.689 111.224 150.545 111.093 150.36 111.093C150.153 111.092 149.946 111.122 149.748 111.182C149.542 111.237 149.33 111.265 149.116 111.265C148.931 111.263 148.744 111.249 148.56 111.224C148.349 111.196 148.142 111.136 147.949 111.045C147.756 110.961 147.584 110.834 147.447 110.674C147.29 110.481 147.214 110.234 147.235 109.986C147.231 109.754 147.263 109.522 147.331 109.299C147.379 109.141 147.469 108.998 147.592 108.886C147.7 108.792 147.83 108.726 147.97 108.694C148.123 108.657 148.279 108.639 148.437 108.639H148.897H149.357C149.653 108.639 149.949 108.618 150.243 108.577C150.536 108.535 150.832 108.515 151.129 108.515C151.328 108.515 151.534 108.515 151.74 108.55C151.946 108.575 152.147 108.628 152.338 108.708C152.427 108.743 152.508 108.797 152.575 108.865C152.643 108.934 152.695 109.016 152.729 109.106C152.811 109.299 152.887 109.491 152.963 109.691C153.026 109.876 153.107 110.056 153.203 110.227C153.248 110.305 153.313 110.368 153.392 110.411C153.471 110.453 153.56 110.473 153.649 110.467C153.745 110.466 153.837 110.432 153.91 110.371C153.986 110.302 154.061 110.234 154.137 110.151L154.364 109.918C154.435 109.847 154.526 109.799 154.624 109.78C154.83 109.746 155.024 109.661 155.188 109.533L155.696 109.148C155.86 109.02 156.032 108.903 156.211 108.797C156.38 108.693 156.575 108.638 156.774 108.639C156.927 108.637 157.079 108.619 157.228 108.584C157.411 108.548 157.592 108.5 157.77 108.44C157.948 108.373 158.121 108.293 158.285 108.199C158.433 108.12 158.563 108.012 158.67 107.883C158.973 107.924 159.27 108 159.556 108.11C159.9 108.244 160.228 108.42 160.531 108.632C160.84 108.844 161.116 109.101 161.348 109.395C161.574 109.677 161.712 110.019 161.746 110.378C161.778 110.594 161.83 110.806 161.904 111.011L162.131 111.595C162.214 111.787 162.282 111.987 162.351 112.193C162.428 112.407 162.472 112.632 162.481 112.86Z" fill="black"/>
<path d="M177.178 122.002C177.184 122.278 177.142 122.552 177.054 122.813C176.983 123.024 176.881 123.223 176.753 123.404C176.623 123.582 176.478 123.748 176.32 123.899C176.155 124.051 175.99 124.216 175.825 124.387C175.722 124.507 175.604 124.613 175.475 124.704C175.38 124.773 175.279 124.833 175.173 124.882L174.87 125.02C174.761 125.068 174.637 125.137 174.5 125.212C174.337 125.312 174.181 125.422 174.033 125.542L173.655 125.81C173.526 125.895 173.388 125.965 173.243 126.017C173.061 126.074 172.875 126.118 172.686 126.147C172.315 126.202 171.938 126.271 171.56 126.353C171.193 126.435 170.817 126.477 170.441 126.477C170.361 126.476 170.283 126.455 170.214 126.415L169.939 126.292C169.828 126.245 169.712 126.206 169.596 126.175C169.449 126.13 169.296 126.109 169.143 126.113C168.986 126.118 168.832 126.079 168.696 126.003C168.589 125.934 168.49 125.853 168.401 125.762L168.126 125.453C168.025 125.334 167.901 125.236 167.762 125.164C167.229 124.864 166.749 124.479 166.341 124.023C165.946 123.569 165.609 123.068 165.338 122.531C165.051 121.957 164.822 121.356 164.651 120.737C164.457 120.075 164.299 119.403 164.177 118.723C164.074 118.237 164.021 117.742 164.019 117.245C164.015 116.631 164.139 116.022 164.383 115.458C164.296 115.149 164.25 114.83 164.246 114.509C164.261 114.175 164.311 113.843 164.397 113.52C164.502 113.069 164.635 112.626 164.795 112.193C164.945 111.781 165.121 111.379 165.324 110.99C165.437 110.726 165.623 110.499 165.86 110.337C165.956 110.295 166.048 110.244 166.134 110.186C166.183 110.144 166.21 110.027 166.21 109.842C166.206 109.712 166.253 109.587 166.341 109.491C166.432 109.395 166.542 109.317 166.663 109.264C166.787 109.203 166.917 109.154 167.041 109.106L167.35 108.969C167.668 108.77 167.998 108.59 168.339 108.433C168.641 108.287 168.953 108.163 169.273 108.061C169.589 107.962 169.913 107.889 170.241 107.841C170.596 107.793 170.955 107.77 171.313 107.773C171.516 107.772 171.719 107.807 171.91 107.876C172.109 107.948 172.3 108.04 172.481 108.151C172.659 108.261 172.837 108.385 173.016 108.515L173.531 108.914C173.671 108.934 173.805 108.986 173.923 109.065C174.045 109.138 174.18 109.187 174.321 109.209C174.464 109.424 174.638 109.616 174.836 109.78C175.042 109.966 175.248 110.151 175.447 110.351C175.642 110.544 175.815 110.759 175.962 110.99C176.107 111.225 176.181 111.497 176.175 111.774C176.179 111.819 176.179 111.865 176.175 111.911C176.181 111.963 176.181 112.017 176.175 112.069L176.23 111.987C176.28 112.034 176.318 112.093 176.34 112.158C176.34 112.241 176.402 112.33 176.43 112.433C176.457 112.537 176.478 112.633 176.498 112.729C176.519 112.825 176.533 112.908 176.539 112.97C176.607 113.115 176.711 113.241 176.841 113.334C176.972 113.434 177.074 113.567 177.137 113.719C177.041 113.853 176.992 114.015 176.999 114.179C177.001 114.378 177.033 114.575 177.096 114.764C177.164 114.953 177.199 115.153 177.199 115.355C177.199 115.589 177.199 115.809 177.164 116.042C177.13 116.276 177.164 116.482 177.164 116.73C177.17 116.805 177.159 116.88 177.131 116.951C177.104 117.021 177.061 117.084 177.006 117.135C176.899 117.23 176.781 117.313 176.656 117.383C176.54 117.445 176.428 117.514 176.32 117.589C176.27 117.622 176.23 117.667 176.202 117.72C176.175 117.773 176.161 117.832 176.162 117.891C176.162 117.981 176.12 118.029 176.031 118.022H175.811C175.399 118.019 174.989 117.954 174.596 117.83C174.205 117.7 173.798 117.633 173.387 117.63C172.952 117.632 172.517 117.671 172.089 117.747C171.663 117.824 171.231 117.863 170.798 117.864C170.468 117.864 170.111 117.864 169.83 117.83C169.548 117.795 169.184 117.788 168.854 117.788C168.695 117.798 168.536 117.818 168.38 117.85C168.154 117.891 167.906 117.946 167.652 118.008C167.403 118.074 167.158 118.152 166.917 118.242C166.741 118.297 166.576 118.383 166.43 118.496C166.425 118.576 166.425 118.657 166.43 118.737C166.439 119.326 166.57 119.906 166.814 120.442C167.318 121.597 168.161 122.57 169.232 123.233C169.704 123.535 170.251 123.699 170.812 123.707C171.114 123.707 171.423 123.707 171.725 123.748C172.033 123.78 172.333 123.866 172.611 124.002C172.858 123.854 173.089 123.679 173.297 123.48C173.504 123.281 173.71 123.068 173.902 122.848C174.094 122.628 174.287 122.394 174.479 122.16C174.672 121.927 174.85 121.693 175.049 121.473C175.124 121.404 175.217 121.359 175.317 121.342C175.47 121.299 175.627 121.265 175.784 121.239C175.956 121.239 176.114 121.184 176.265 121.164H176.58C176.786 121.162 176.99 121.204 177.178 121.287C177.202 121.525 177.202 121.764 177.178 122.002ZM175.083 114.881C175.085 114.709 175.062 114.537 175.015 114.372C174.967 114.205 174.931 114.035 174.905 113.863C174.859 113.547 174.836 113.227 174.836 112.908C174.834 112.59 174.795 112.274 174.72 111.966C174.721 112.036 174.702 112.106 174.664 112.165C174.652 112.195 174.631 112.22 174.604 112.237C174.577 112.254 174.545 112.263 174.513 112.262C174.398 112.26 174.285 112.224 174.19 112.158C174.087 112.089 173.998 112.001 173.93 111.897C173.572 111.698 173.243 111.512 172.968 111.334C172.693 111.155 172.405 111.004 172.123 110.866C171.831 110.734 171.528 110.631 171.217 110.557C170.852 110.472 170.478 110.433 170.104 110.44H170.001C169.965 110.449 169.933 110.471 169.912 110.502L169.981 110.694H169.871C169.617 110.756 169.411 110.811 169.252 110.866C169.095 110.912 168.947 110.984 168.813 111.079C168.675 111.182 168.546 111.297 168.429 111.423L167.947 111.945C167.862 112.041 167.76 112.12 167.646 112.179C167.54 112.231 167.432 112.277 167.323 112.317L167.021 112.454C166.917 112.502 166.831 112.582 166.773 112.681C166.71 112.974 166.615 113.26 166.492 113.533C166.363 113.804 166.298 114.1 166.299 114.399C166.301 114.57 166.362 114.735 166.471 114.867C166.598 115.008 166.753 115.122 166.924 115.204C167.115 115.305 167.315 115.388 167.522 115.451C167.733 115.52 167.949 115.573 168.167 115.609L168.758 115.692H169.184C169.539 115.693 169.891 115.649 170.235 115.561C170.576 115.476 170.926 115.432 171.279 115.43C171.641 115.431 172.003 115.451 172.363 115.492C172.726 115.534 173.091 115.554 173.456 115.554H173.868C174.057 115.546 174.243 115.513 174.424 115.458C174.595 115.414 174.756 115.337 174.898 115.231C174.953 115.19 174.997 115.137 175.03 115.077C175.062 115.016 175.08 114.949 175.083 114.881Z" fill="black"/>
<path d="M193.696 99.6476C193.699 99.8131 193.666 99.9773 193.599 100.129C193.536 100.26 193.448 100.377 193.338 100.473C193.229 100.568 193.109 100.651 192.981 100.72L192.569 100.912L192.61 101.181C192.61 101.27 192.61 101.359 192.61 101.455C192.61 101.875 192.497 102.286 192.281 102.645C192.071 103.01 191.825 103.353 191.546 103.669C191.51 103.843 191.464 104.015 191.408 104.185C191.355 104.356 191.291 104.523 191.217 104.686C191.141 104.872 191.072 105.064 191.017 105.25C190.962 105.436 190.9 105.614 190.839 105.793C190.775 105.96 190.696 106.121 190.605 106.274C190.519 106.421 190.399 106.543 190.255 106.632C190.096 106.982 189.932 107.319 189.774 107.697C189.616 108.075 189.43 108.385 189.232 108.776C189.244 108.801 189.256 108.826 189.266 108.852C189.27 108.891 189.27 108.93 189.266 108.969C189.267 109.138 189.23 109.305 189.156 109.457C189.086 109.598 189.006 109.734 188.915 109.863L188.751 110.124C188.7 110.211 188.665 110.306 188.648 110.406C188.44 110.624 188.266 110.871 188.132 111.141C188.023 111.375 187.92 111.609 187.837 111.828C187.755 112.048 187.645 112.282 187.535 112.516C187.398 112.785 187.22 113.031 187.006 113.245V113.368C186.999 113.549 186.964 113.728 186.903 113.898C186.827 114.104 186.745 114.317 186.642 114.537C186.542 114.75 186.43 114.956 186.306 115.156C186.21 115.32 186.105 115.478 185.99 115.63V115.671C185.988 116.034 185.891 116.389 185.708 116.702C185.529 117.019 185.32 117.319 185.083 117.596C185.01 117.679 184.951 117.774 184.912 117.878C184.912 117.988 184.836 118.091 184.801 118.201C184.767 118.311 184.719 118.428 184.678 118.538C184.633 118.647 184.565 118.745 184.479 118.826C184.457 119.086 184.416 119.343 184.355 119.596C184.3 119.823 184.239 120.036 184.17 120.242C184.101 120.449 184.019 120.648 183.93 120.847C183.84 121.047 183.744 121.26 183.627 121.494L183.49 121.755C183.446 121.972 183.375 122.182 183.277 122.38C183.149 122.655 183.004 122.944 182.844 123.246C182.684 123.549 182.519 123.844 182.35 124.133C182.178 124.422 182.04 124.642 181.931 124.821C181.836 125.296 181.681 125.758 181.471 126.195C181.348 126.447 181.188 126.679 180.997 126.883C180.917 126.977 180.818 127.052 180.707 127.104C180.595 127.156 180.474 127.184 180.351 127.185C180.159 127.186 179.972 127.126 179.815 127.013C179.654 126.9 179.513 126.758 179.404 126.594C179.294 126.423 179.209 126.238 179.149 126.044C179 125.55 179.042 125.018 179.266 124.552C179.404 124.282 179.562 124.022 179.74 123.776C179.941 123.491 180.118 123.19 180.269 122.875C180.391 122.623 180.551 122.391 180.743 122.188C180.814 122.087 180.878 121.981 180.935 121.872L181.148 121.439C181.23 121.267 181.333 121.067 181.457 120.834C181.581 120.6 181.731 120.318 181.917 119.988C182.103 119.658 182.35 119.253 182.522 118.936C182.693 118.62 182.851 118.318 182.988 118.015C183.126 117.713 183.263 117.417 183.387 117.108C183.511 116.798 183.641 116.42 183.771 116.077C183.882 115.768 184.013 115.468 184.163 115.176C184.321 114.867 184.479 114.564 184.637 114.283C184.795 114.001 184.939 113.712 185.076 113.444C185.195 113.209 185.289 112.963 185.358 112.708C185.358 112.592 185.413 112.475 185.433 112.365C185.465 112.24 185.511 112.12 185.571 112.007C185.639 111.851 185.717 111.7 185.804 111.554L185.948 111.285C185.997 111.195 186.021 111.093 186.017 110.99V110.797C186.139 110.656 186.24 110.499 186.319 110.33C186.443 110.103 186.553 109.856 186.663 109.594C186.773 109.333 186.862 109.072 186.945 108.825C187.007 108.64 187.047 108.448 187.061 108.254C187.331 107.956 187.545 107.611 187.693 107.237C187.835 106.856 187.958 106.492 188.064 106.144C188.184 105.705 188.336 105.275 188.517 104.858C188.689 104.466 188.874 104.061 189.067 103.635L189.19 103.339C189.23 103.268 189.276 103.202 189.328 103.14L189.486 102.933C189.547 102.839 189.602 102.74 189.651 102.638C189.762 102.432 189.862 102.221 189.952 102.005C190.063 101.758 190.159 101.497 190.262 101.222C190.349 100.982 190.406 100.733 190.434 100.479C190.524 100.403 190.599 100.31 190.653 100.204C190.733 100.067 190.805 99.9249 190.866 99.7782C190.928 99.627 190.989 99.4757 191.03 99.3383C191.021 99.278 191.024 99.2162 191.04 99.1573C191.056 99.0983 191.085 99.0435 191.124 98.9966C191.163 98.9497 191.212 98.9117 191.267 98.8852C191.322 98.8588 191.382 98.8445 191.443 98.8433L191.594 98.7265C191.687 98.6448 191.788 98.5734 191.896 98.5134C192.056 98.4423 192.23 98.4116 192.404 98.424C192.741 98.4156 193.067 98.5361 193.318 98.7608C193.44 98.873 193.538 99.0102 193.603 99.1632C193.668 99.3161 193.7 99.4813 193.696 99.6476Z" fill="#F05B5C"/>
<path d="M196.676 118.249C196.89 118.197 197.108 118.165 197.329 118.153C197.573 118.131 197.816 118.096 198.056 118.05C198.307 117.994 198.55 117.914 198.785 117.809C199.026 117.699 199.239 117.537 199.409 117.335C199.479 117.264 199.544 117.189 199.601 117.108C199.67 117.012 199.739 116.922 199.815 116.833L200.027 116.613C200.089 116.553 200.165 116.508 200.247 116.482C200.443 116.452 200.628 116.371 200.783 116.249C200.88 116.158 200.972 116.061 201.058 115.96C201.129 115.867 201.212 115.784 201.305 115.712C201.448 115.629 201.613 115.591 201.779 115.602H202.088C202.163 115.611 202.239 115.611 202.315 115.602C202.415 115.548 202.512 115.486 202.603 115.417L203.18 115.004L203.757 114.592C203.928 114.468 204.018 114.399 204.038 114.393C204.038 114.214 204.004 114.097 203.99 114.042C203.976 113.987 203.991 113.953 203.942 113.953C203.936 113.948 203.929 113.946 203.921 113.946C203.914 113.946 203.907 113.948 203.901 113.953C203.901 113.953 203.901 113.918 203.867 113.863C203.832 113.808 203.867 113.678 203.867 113.478C203.867 113.478 203.812 113.423 203.709 113.355L203.386 113.128L203.056 112.894C203.001 112.862 202.95 112.823 202.905 112.777V112.564C202.607 112.434 202.329 112.26 202.081 112.048L201.325 111.361C201.08 111.132 200.824 110.917 200.556 110.715C200.291 110.516 199.99 110.37 199.67 110.282L199.457 110.227V110.096C199.464 110.021 199.464 109.945 199.457 109.869C199.461 109.796 199.461 109.723 199.457 109.649C199.457 109.574 199.457 109.539 199.416 109.539C199.375 109.539 199.416 109.539 199.361 109.594C199.338 109.634 199.317 109.676 199.3 109.718C199.283 109.757 199.263 109.794 199.237 109.828C199.237 109.828 199.204 109.876 199.196 109.876C199.09 109.843 198.999 109.775 198.935 109.684L198.627 109.299L198.296 108.9C198.214 108.801 198.117 108.715 198.008 108.646L197.713 108.488C197.609 108.44 197.509 108.388 197.411 108.33C197.387 108.318 197.366 108.301 197.35 108.279C197.335 108.258 197.325 108.232 197.321 108.206C197.306 108.145 197.286 108.085 197.26 108.027C197.229 107.954 197.179 107.89 197.116 107.841C197.03 107.77 196.924 107.727 196.813 107.718C196.715 107.705 196.62 107.669 196.538 107.612C196.455 107.556 196.388 107.482 196.339 107.395C196.233 107.203 196.179 106.988 196.182 106.769C196.184 106.597 196.209 106.426 196.257 106.26C196.307 106.089 196.389 105.928 196.497 105.786C196.604 105.648 196.738 105.531 196.889 105.442C197.049 105.355 197.229 105.31 197.411 105.312C197.712 105.329 198.006 105.416 198.269 105.566C198.666 105.802 199.021 106.102 199.32 106.453L199.56 106.742L199.656 106.893C199.671 106.929 199.692 106.961 199.719 106.989C199.754 107.033 199.796 107.072 199.842 107.106L200.13 107.285L200.687 107.615C200.814 107.683 200.93 107.771 201.03 107.876C201.116 107.967 201.196 108.064 201.27 108.165C201.346 108.261 201.422 108.371 201.497 108.481C201.577 108.601 201.664 108.715 201.758 108.824C201.871 108.955 202.005 109.064 202.156 109.148L202.596 109.361C202.747 109.423 202.891 109.491 203.042 109.567C203.191 109.642 203.328 109.74 203.448 109.856C203.558 109.97 203.668 110.08 203.777 110.186L204.087 110.474C204.183 110.574 204.297 110.656 204.423 110.715C204.52 110.763 204.621 110.802 204.725 110.832L204.999 110.914C205.103 110.943 205.201 110.989 205.288 111.052C205.315 111.068 205.339 111.09 205.356 111.116C205.374 111.142 205.386 111.172 205.391 111.203C205.395 111.269 205.395 111.336 205.391 111.402C205.395 111.473 205.395 111.544 205.391 111.615C205.396 111.677 205.417 111.737 205.453 111.787H205.845C205.933 111.866 206.03 111.936 206.133 111.993C206.227 112.041 206.315 112.101 206.394 112.172C206.473 112.246 206.541 112.332 206.593 112.427C206.647 112.557 206.673 112.698 206.669 112.839C206.669 113.166 206.629 113.491 206.552 113.808C206.469 114.129 206.427 114.46 206.428 114.791V115.052C206.159 115.338 205.872 115.607 205.57 115.857C205.318 116.06 205.054 116.249 204.78 116.42C204.512 116.585 204.237 116.737 203.949 116.888L202.96 117.39C202.781 117.623 202.589 117.857 202.39 118.077C202.188 118.303 201.956 118.502 201.703 118.668C201.585 118.763 201.449 118.835 201.305 118.881L200.962 118.984C200.839 119.023 200.721 119.076 200.611 119.143C200.461 119.246 200.327 119.371 200.213 119.514C200.163 119.589 200.097 119.651 200.02 119.697C199.942 119.742 199.856 119.769 199.766 119.775H199.56C199.49 119.768 199.418 119.768 199.348 119.775H199.237C199.14 119.962 199.015 120.134 198.867 120.284C198.709 120.462 198.537 120.628 198.352 120.779C198.186 120.919 198.009 121.045 197.823 121.157C197.695 121.239 197.548 121.288 197.397 121.301C197.224 121.296 197.059 121.23 196.93 121.115C196.763 120.979 196.619 120.817 196.504 120.634C196.37 120.42 196.266 120.189 196.195 119.947C196.118 119.726 196.076 119.494 196.072 119.259C196.072 119.049 196.116 118.84 196.202 118.648C196.311 118.465 196.478 118.324 196.676 118.249Z" fill="#F05B5C"/>
<path d="M34.3959 137.18C35.1963 137.062 36.0042 137.002 36.8134 137.001C38.0951 136.898 39.3677 137.289 40.3709 138.094C40.7939 138.501 41.124 138.994 41.3387 139.539C41.5532 140.085 41.6472 140.671 41.614 141.256C41.645 141.885 41.549 142.513 41.3319 143.104C41.1148 143.695 40.781 144.235 40.3503 144.694C39.2657 145.606 37.8691 146.059 36.4562 145.958C35.7681 145.961 35.0803 145.927 34.3959 145.855V137.18ZM35.5359 144.969C35.9162 145.018 36.2996 145.039 36.6829 145.03C39.1072 145.03 40.4258 143.656 40.4258 141.298C40.4258 139.236 39.2652 137.902 36.8615 137.902C36.4167 137.893 35.9723 137.932 35.5359 138.019V144.969Z" fill="black"/>
<path d="M47.6427 141.738H44.2087V144.913H48.0204V145.869H43.0756V137.063H47.835V138.019H44.2225V140.768H47.6564L47.6427 141.738Z" fill="black"/>
<path d="M49.3533 144.481C49.9746 144.857 50.6871 145.057 51.4137 145.058C52.5744 145.058 53.2543 144.446 53.2543 143.553C53.2543 142.659 52.7804 142.26 51.5991 141.807C50.1637 141.298 49.2709 140.549 49.2709 139.311C49.2709 137.936 50.411 136.919 52.121 136.919C52.795 136.898 53.4634 137.047 54.0647 137.352L53.7419 138.28C53.2294 138.003 52.6556 137.859 52.073 137.861C50.8711 137.861 50.4179 138.582 50.4179 139.18C50.4179 140.005 50.9535 140.411 52.1623 140.879C53.6526 141.449 54.4081 142.171 54.4081 143.463C54.4081 144.755 53.4054 146 51.3313 146C50.5467 146.007 49.7734 145.813 49.0854 145.436L49.3533 144.481Z" fill="black"/>
<path d="M57.0728 137.063V145.869H55.9396V137.063H57.0728Z" fill="black"/>
<path d="M65.7544 145.484C64.8871 145.792 63.9751 145.955 63.0553 145.965C62.4545 146.024 61.8482 145.95 61.2791 145.747C60.7104 145.545 60.1927 145.221 59.7627 144.797C59.3332 144.373 59.0016 143.859 58.792 143.292C58.5824 142.726 58.4997 142.12 58.5499 141.518C58.5499 138.892 60.3632 136.974 63.3163 136.974C64.0668 136.955 64.813 137.093 65.5071 137.38L65.2324 138.308C64.621 138.036 63.9571 137.905 63.2888 137.923C62.8146 137.886 62.3384 137.951 61.8924 138.116C61.4464 138.281 61.0412 138.54 60.7053 138.877C60.369 139.213 60.1096 139.619 59.945 140.065C59.7804 140.512 59.7145 140.988 59.7518 141.463C59.7518 143.697 61.1254 145.017 63.1446 145.017C63.6588 145.045 64.1734 144.965 64.6555 144.783V142.157H62.8699V141.243H65.7681L65.7544 145.484Z" fill="black"/>
<path d="M67.4772 145.869V137.063H68.7136L71.5292 141.518C72.1177 142.436 72.645 143.391 73.109 144.377C73.0061 143.202 72.9787 142.13 72.9787 140.761V137.077H74.0499V145.883H72.9714L70.1763 141.415C69.5701 140.468 69.0221 139.486 68.5349 138.473H68.4938C68.5624 139.586 68.5832 140.645 68.5832 142.102V145.869H67.4772Z" fill="black"/>
<path d="M79.8395 136.073V149.134H78.9672V136.073H79.8395Z" fill="black"/>
<path d="M85.8633 137.063V145.869H84.723V137.063H85.8633Z" fill="black"/>
<path d="M87.8474 145.869V137.063H89.0837L91.8994 141.518C92.4874 142.436 93.0152 143.391 93.4792 144.377C93.3763 143.202 93.3484 142.13 93.3484 140.761V137.077H94.4201V145.883H93.3009L90.5053 141.415C89.8991 140.468 89.3508 139.486 88.8642 138.473H88.8226C88.8916 139.586 88.9117 140.645 88.9117 142.102V145.869H87.8474Z" fill="black"/>
<path d="M96.4326 145.869V137.063H97.6964L100.519 141.518C101.107 142.434 101.633 143.39 102.092 144.377C101.989 143.202 101.962 142.13 101.962 140.761V137.077H103.033V145.883H101.886L99.0905 141.415C98.4868 140.467 97.9385 139.484 97.4489 138.473H97.4078C97.4764 139.586 97.5038 140.645 97.5038 142.102V145.869H96.4326Z" fill="black"/>
<path d="M112.53 141.36C112.53 144.391 110.69 145.993 108.45 145.993C106.212 145.993 104.495 144.192 104.495 141.532C104.495 138.734 106.232 136.905 108.581 136.905C110.93 136.905 112.53 138.761 112.53 141.36ZM105.71 141.504C105.71 143.381 106.727 145.072 108.513 145.072C110.298 145.072 111.328 143.408 111.328 141.415C111.328 139.662 110.415 137.833 108.526 137.833C106.637 137.833 105.71 139.586 105.71 141.518V141.504Z" fill="black"/>
<path d="M115.938 145.869L113.067 137.063H114.296L115.67 141.401C116.048 142.59 116.357 143.656 116.611 144.693C116.858 143.669 117.222 142.563 117.614 141.415L119.104 137.063H120.361L117.222 145.869H115.938Z" fill="black"/>
<path d="M121.968 143.099L121.054 145.849H119.88L122.867 137.043H124.241L127.229 145.869H126.013L125.071 143.12L121.968 143.099ZM124.852 142.212L123.987 139.675C123.794 139.098 123.664 138.583 123.533 138.067C123.403 138.589 123.258 139.126 123.094 139.662L122.229 142.212H124.852Z" fill="black"/>
<path d="M129.199 138.033H126.542V137.063H133.052V138.033H130.367V145.869H129.22L129.199 138.033Z" fill="black"/>
<path d="M138.567 141.738H135.133V144.913H138.944V145.869H134V137.063H138.746V138.019H135.133V140.768H138.567V141.738Z" fill="black"/>
<path d="M144.205 136.073V149.134H143.326V136.073H144.205Z" fill="black"/>
<path d="M155.228 145.581C154.492 145.882 153.701 146.025 152.907 146C150.428 146 148.559 144.433 148.559 141.545C148.525 140.931 148.62 140.317 148.839 139.741C149.057 139.166 149.393 138.644 149.827 138.207C150.26 137.771 150.78 137.431 151.353 137.209C151.927 136.987 152.54 136.888 153.154 136.919C153.862 136.893 154.565 137.027 155.215 137.311L154.94 138.239C154.383 137.989 153.777 137.865 153.168 137.875C151.107 137.875 149.734 139.195 149.734 141.504C149.734 143.656 150.97 145.044 153.113 145.044C153.75 145.052 154.381 144.928 154.967 144.68L155.228 145.581Z" fill="black"/>
<path d="M156.649 137.18C157.368 137.054 158.097 136.994 158.827 137.001C159.732 136.901 160.643 137.146 161.375 137.689C161.601 137.903 161.778 138.163 161.897 138.45C162.015 138.738 162.071 139.048 162.061 139.359C162.068 139.863 161.909 140.355 161.61 140.761C161.311 141.167 160.889 141.464 160.406 141.607V141.648C160.759 141.803 161.064 142.049 161.291 142.36C161.518 142.672 161.658 143.039 161.698 143.422C161.857 144.247 162.086 145.056 162.384 145.841H161.21C160.95 145.16 160.755 144.456 160.626 143.738C160.365 142.522 159.891 142.068 158.861 142.027H157.79V145.841H156.656L156.649 137.18ZM157.783 141.188H158.944C160.159 141.188 160.928 140.5 160.928 139.518C160.928 138.383 160.111 137.888 158.909 137.875C158.531 137.862 158.153 137.897 157.783 137.978V141.188Z" fill="black"/>
<path d="M168.223 141.738H164.789V144.913H168.594V145.869H163.649V137.063H168.436V138.019H164.824V140.768H168.258L168.223 141.738Z" fill="black"/>
<path d="M171.512 143.099L170.599 145.849H169.424L172.412 137.043H173.785L176.787 145.849H175.571L174.63 143.099H171.512ZM174.397 142.212L173.538 139.675C173.339 139.098 173.208 138.583 173.078 138.067C172.947 138.589 172.803 139.126 172.638 139.662L171.773 142.212H174.397Z" fill="black"/>
<path d="M178.737 138.033H176.058V137.063H182.569V138.033H179.884V145.869H178.737V138.033Z" fill="black"/>
<path d="M188.112 141.738H184.678V144.913H188.49V145.869H183.545V137.063H188.291V138.019H184.678V140.768H188.112V141.738Z" fill="black"/>
<path d="M210.506 101V95.1818H212.801C213.241 95.1818 213.616 95.2604 213.926 95.4176C214.239 95.5729 214.476 95.7936 214.639 96.0795C214.804 96.3636 214.886 96.6979 214.886 97.0824C214.886 97.4687 214.803 97.8011 214.636 98.0795C214.47 98.3561 214.228 98.5682 213.912 98.7159C213.598 98.8636 213.217 98.9375 212.77 98.9375H211.233V97.9489H212.571C212.806 97.9489 213.001 97.9167 213.156 97.8523C213.312 97.7879 213.427 97.6913 213.503 97.5625C213.58 97.4337 213.619 97.2737 213.619 97.0824C213.619 96.8892 213.58 96.7263 213.503 96.5938C213.427 96.4612 213.311 96.3608 213.153 96.2926C212.998 96.2225 212.802 96.1875 212.565 96.1875H211.736V101H210.506ZM213.648 98.3523L215.094 101H213.736L212.321 98.3523H213.648Z" fill="black"/>
<circle cx="212.421" cy="98.4212" r="6.9212" stroke="black"/>
</svg>
